<svg height='100px' width='100px'  fill="#FFFFFF" xmlns="http://www.w3.org/2000/svg" xmlns:xlink="http://www.w3.org/1999/xlink" version="1.1" x="0px" y="0px" viewBox="0 0 100 100" enable-background="new 0 0 100 100" xml:space="preserve"><path fill="#FFFFFF" d="M17.757,45.263c0.02,0.034,0.033,0.064,0.064,0.088c0.01,0.008,0.01,0.023,0.021,0.03l0.969,0.594  c0.046,0.027,0.096,0.039,0.145,0.041c0.005,0,0.008,0.004,0.013,0.004c0.016,0,0.031-0.005,0.047-0.008l0.545,0.337  c0,0,0.001,0,0.001,0c0.048,0.029,0.102,0.045,0.157,0.045c0.045,0,0.091-0.01,0.134-0.032l0.125-0.062  c0.015-0.007,0.017-0.024,0.029-0.033c0.012-0.009,0.032-0.006,0.043-0.017c0.001-0.001,0.001-0.004,0.002-0.005  c0.009-0.008,0.008-0.021,0.016-0.029l0.087-0.052c0.012-0.007,0.013-0.022,0.022-0.031c0.031-0.024,0.046-0.054,0.065-0.088  c0.017-0.028,0.041-0.048,0.047-0.08l0.022,0.007c0.03,0.01,0.062,0.015,0.093,0.015c0.003,0,0.004,0.002,0.006,0.002  c0.044,0,0.087-0.014,0.125-0.033c0.002,0,0.004,0,0.005-0.001l0.062-0.031c0.017-0.008,0.017-0.026,0.029-0.037  c0.023-0.016,0.043-0.026,0.061-0.047l0.087-0.052c0.012-0.007,0.013-0.022,0.022-0.031c0.031-0.024,0.046-0.054,0.065-0.088  c0.021-0.035,0.039-0.063,0.043-0.104c0.002-0.013,0.015-0.021,0.015-0.035v-0.706c0.008-0.027,0.031-0.046,0.031-0.076v-0.406  l0.925-0.449c0.002-0.001,0.003-0.004,0.005-0.005c0.003-0.002,0.008-0.001,0.011-0.003l2.781-1.562  c0.014-0.008,0.015-0.024,0.026-0.033c0.032-0.024,0.049-0.053,0.068-0.087c0.021-0.035,0.037-0.063,0.042-0.102  c0.003-0.015,0.017-0.024,0.017-0.039v-0.017l0.855-0.509l0.002,0c0,0,0,0,0,0l0.001,0c0.02,0.012,0.041,0.01,0.062,0.017  c0.03,0.01,0.06,0.026,0.092,0.026c0.045,0,0.091-0.01,0.134-0.032l0.054-0.027l0.366,0.183c0.043,0.021,0.089,0.032,0.134,0.032  c0.056,0,0.11-0.017,0.158-0.047c0.001,0,0.003,0,0.004-0.001l0.284-0.183l1.218,0.699c-0.007,0.022-0.021,0.039-0.021,0.062  c0,0.005-0.005,0.008-0.005,0.013v0.281c0,0.015,0.014,0.023,0.016,0.038c0.005,0.04,0.022,0.068,0.042,0.103  c0.021,0.035,0.037,0.064,0.068,0.088c0.008,0.006,0.009,0.017,0.018,0.022l-0.48,0.283l-0.042-0.021  c-0.01-0.005-0.021,0.001-0.031-0.002c-0.037-0.015-0.071-0.009-0.111-0.008c-0.04,0.001-0.074-0.002-0.11,0.015  c-0.01,0.004-0.021-0.001-0.03,0.004l-2.781,1.594c-0.006,0.003-0.006,0.011-0.011,0.014c-0.006,0.003-0.013,0-0.018,0.004  l-0.896,0.657l-0.139,0.042l-0.326-0.186c-0.012-0.007-0.025,0-0.038-0.005c-0.038-0.016-0.071-0.014-0.112-0.014  c-0.039,0-0.07-0.001-0.106,0.014c-0.013,0.005-0.027-0.002-0.04,0.005l-0.067,0.039l-0.538-0.318c-0.01-0.006-0.021,0-0.032-0.004  c-0.036-0.017-0.07-0.015-0.11-0.016s-0.074-0.006-0.111,0.008c-0.011,0.004-0.021-0.003-0.032,0.002l-0.062,0.031  c-0.017,0.008-0.019,0.027-0.033,0.038c-0.021,0.016-0.04,0.026-0.057,0.046l-0.087,0.052c-0.012,0.007-0.013,0.022-0.022,0.031  c-0.029,0.022-0.043,0.049-0.062,0.08c-0.013,0.021-0.037,0.029-0.045,0.052c-0.001,0.004,0.002,0.007,0.001,0.011  c-0.003,0.011-0.003,0.02-0.005,0.03l-0.076-0.019c-0.014-0.003-0.024,0.007-0.038,0.006c-0.039-0.005-0.069,0.005-0.107,0.015  c-0.04,0.011-0.076,0.018-0.107,0.044c-0.011,0.007-0.025,0.004-0.035,0.013c-0.002,0.002-0.001,0.005-0.003,0.007l-0.057,0.056  c-0.007,0.007-0.005,0.02-0.012,0.028l-0.087,0.052c-0.012,0.007-0.013,0.022-0.022,0.031c-0.021,0.016-0.035,0.031-0.051,0.052  c-0.01,0.012-0.025,0.012-0.033,0.025s0,0.028-0.005,0.042c-0.011,0.025-0.017,0.045-0.02,0.072  c-0.002,0.013-0.015,0.021-0.015,0.035V47c0,0.018,0.016,0.028,0.019,0.045c0.006,0.04,0.021,0.069,0.043,0.103  c0.021,0.034,0.039,0.06,0.071,0.083c0.003,0.002,0.004,0.005,0.007,0.007c0.006,0.035,0.025,0.06,0.044,0.091  c0.021,0.034,0.036,0.062,0.067,0.086c0.012,0.009,0.013,0.026,0.026,0.033l1,0.562c0.047,0.026,0.098,0.039,0.147,0.039  c0.001,0,0.002-0.001,0.004-0.001l0.004,0.003c0.006,0.004,0.014,0.002,0.02,0.006c0.049,0.032,0.103,0.053,0.16,0.053  c0.053,0,0.104-0.018,0.15-0.045c0.005-0.003,0.011-0.001,0.016-0.005l0.375-0.25l0.06-0.04l5.871-1.988  c0.008-0.002,0.01-0.012,0.017-0.015c0.013-0.005,0.025-0.003,0.037-0.01l2.537-1.475l1.568,0.913c0,0,0.001,0,0.001,0  c0.005,0.003,0.012,0.003,0.018,0.005c0.003,0.001,0.003,0.005,0.006,0.007c0.041,0.019,0.083,0.028,0.126,0.028  c0.053,0,0.104-0.014,0.149-0.041l0.009-0.005c0.001,0,0.002-0.001,0.002-0.001l4.271-2.462c0.001-0.001,0.001-0.002,0.002-0.003  c0.051-0.03,0.095-0.073,0.121-0.13l0.406-0.875c0.007-0.016-0.003-0.032,0.002-0.048c0.005-0.017,0.021-0.027,0.023-0.045  l0.125-1.125c0.001-0.011-0.009-0.02-0.009-0.031c0-0.012,0.011-0.02,0.01-0.032l-0.083-0.834l0.1,0.044  c0.026,0.012,0.054,0.013,0.08,0.018c0.006,0,0.009,0.007,0.015,0.007l0.344,0.031c0.009,0.001,0.018,0.001,0.025,0.001  c0.001,0,0.001,0,0.002,0c0.026,0,0.053-0.003,0.079-0.011l0.344-0.094c0.003-0.001,0.004-0.005,0.008-0.006  c0.008-0.002,0.015-0.001,0.022-0.004l3.438-1.344c0.006-0.002,0.007-0.009,0.013-0.012c0.009-0.004,0.02-0.002,0.028-0.008  l3.781-2.188c0.013-0.007,0.014-0.023,0.025-0.033c0.03-0.023,0.046-0.052,0.066-0.086c0.02-0.035,0.037-0.064,0.042-0.104  c0.002-0.014,0.016-0.022,0.016-0.037v-1.42l15.593-8.998l-0.812,1.332l-0.562-0.303c-0.033-0.018-0.068-0.006-0.104-0.01  c-0.041-0.005-0.078-0.022-0.117-0.012s-0.063,0.045-0.096,0.07c-0.027,0.022-0.063,0.029-0.083,0.062l-1.438,2.396l-0.711-0.436  c0,0,0,0-0.001,0v0c-0.07-0.042-0.151-0.053-0.227-0.035c-0.074,0.018-0.142,0.063-0.186,0.134v0L47.233,46.565l-1.051-0.804  c-0.001-0.001-0.004,0-0.005-0.001c-0.002-0.001-0.001-0.003-0.003-0.004L45.956,45.6c-0.017-0.012-0.038-0.005-0.056-0.013  c-0.018-0.009-0.026-0.029-0.046-0.034l-0.184-0.046l-0.322-0.269c-0.013-0.011-0.03-0.006-0.045-0.014  c-0.014-0.009-0.017-0.026-0.032-0.033l-0.375-0.156c-0.002-0.001-0.005,0.001-0.008,0c-0.002-0.001-0.002-0.004-0.005-0.005  l-0.344-0.125c-0.006-0.002-0.012,0.002-0.018,0c-0.007-0.002-0.009-0.009-0.016-0.011l-1.312-0.312  c-0.008-0.002-0.015,0.005-0.022,0.003c-0.008-0.001-0.012-0.009-0.02-0.01l-0.344-0.031c-0.006,0-0.009,0.004-0.015,0.004  c-0.005,0-0.008-0.005-0.013-0.005h-0.375c-0.005,0-0.008,0.005-0.013,0.005c-0.006,0-0.009-0.005-0.015-0.004l-0.333,0.03H41.75  h-0.312c-0.008,0-0.012,0.007-0.02,0.008s-0.013-0.007-0.021-0.005l-1.375,0.188c-0.005,0-0.007,0.006-0.012,0.006  c-0.004,0.001-0.008-0.003-0.013-0.002l-0.281,0.062c-0.003,0.001-0.005,0.004-0.008,0.005s-0.006-0.002-0.009-0.001l-0.219,0.062  c-0.008,0.002-0.011,0.012-0.019,0.015s-0.016-0.002-0.023,0.001l-1.375,0.625c-0.006,0.002-0.007,0.01-0.012,0.013  c-0.006,0.003-0.013,0-0.019,0.003l-0.156,0.094c-0.004,0.002-0.004,0.007-0.007,0.01c-0.004,0.002-0.008,0-0.012,0.002  l-1.375,0.969c-0.009,0.006-0.008,0.018-0.016,0.024c-0.008,0.006-0.02,0.004-0.026,0.011l-1.281,1.312  c-0.012,0.012-0.008,0.03-0.018,0.044c-0.01,0.013-0.028,0.016-0.036,0.031l-0.021,0.042l-1.049,1.481  c-0.005,0.007-0.001,0.016-0.005,0.022c-0.005,0.007-0.014,0.007-0.018,0.015L33.17,51.27c-0.003,0.006,0.001,0.013-0.001,0.019  c-0.001,0.001-0.001,0.001-0.001,0.001c-0.013,0.021-0.038,0.029-0.046,0.054l-0.594,1.781c-0.003,0.007,0.003,0.015,0.002,0.022  c-0.003,0.008-0.012,0.012-0.014,0.021l-0.312,1.781c-0.001,0.006,0.004,0.011,0.004,0.016c-0.001,0.006-0.007,0.009-0.007,0.015  l-0.615,8.613l-0.016,0.012c-0.009,0.007-0.008,0.019-0.016,0.025c-0.008,0.008-0.02,0.006-0.026,0.014l-0.312,0.344  c-0.004,0.004-0.002,0.009-0.005,0.013c-0.004,0.005-0.01,0.004-0.014,0.009l-0.281,0.375c-0.009,0.011-0.003,0.025-0.01,0.037  c-0.006,0.011-0.021,0.013-0.025,0.024l-0.188,0.438c-0.002,0.005,0.002,0.011,0,0.016c-0.002,0.007-0.01,0.008-0.012,0.015  l-0.125,0.406c-0.004,0.012,0.006,0.023,0.004,0.035c-0.003,0.012-0.015,0.018-0.016,0.029l-0.031,0.406  c-0.001,0.01,0.008,0.016,0.008,0.024s-0.009,0.015-0.008,0.024l0.031,0.375c0.002,0.019,0.019,0.029,0.023,0.047  c0.004,0.017-0.006,0.033,0.001,0.05l0.125,0.281c0.011,0.024,0.033,0.037,0.049,0.057c0.008,0.01,0.005,0.024,0.014,0.033  l0.188,0.188c0.011,0.011,0.026,0.007,0.038,0.016s0.013,0.026,0.026,0.034l0.348,0.195v0.168c0,0.008,0.008,0.013,0.009,0.021  c0,0.009-0.007,0.014-0.006,0.022l0.062,0.438l0.031,0.219c0.001,0.008,0.01,0.012,0.011,0.02c0.002,0.007-0.004,0.014-0.002,0.02  l0.122,0.428l0,0l0.062,0.25c0.004,0.018,0.021,0.026,0.027,0.042c0.005,0.013-0.002,0.025,0.005,0.037l0.203,0.349l0.084,0.251  c0.005,0.016,0.021,0.022,0.027,0.037c0.006,0.011,0,0.024,0.007,0.034l0.062,0.094l0.003,0.008  c0.002,0.006,0.009,0.008,0.011,0.014l0.037,0.056L32.29,70c0.002,0.005,0.007,0.006,0.009,0.01s-0.001,0.008,0.001,0.011  l0.156,0.281c0.003,0.006,0.01,0.008,0.013,0.013c0.003,0.004,0,0.009,0.003,0.013l0.281,0.406c0.005,0.007,0.013,0.009,0.018,0.015  c0.003,0.004,0.001,0.009,0.004,0.012l0.219,0.25c0.003,0.004,0.007,0.002,0.01,0.005c0.002,0.003,0.001,0.007,0.004,0.01  l0.281,0.281c0.004,0.004,0.01,0.002,0.014,0.006s0.003,0.011,0.008,0.015l0.344,0.281c0.001,0.001,0.003,0,0.004,0.002  c0.001,0,0.001,0.002,0.002,0.002l0.281,0.219c0.01,0.008,0.022,0.006,0.033,0.012c0.008,0.005,0.009,0.016,0.018,0.021l0.438,0.219  c0.023,0.012,0.048,0.012,0.071,0.017l0.047,0.059c0.023,0.028,0.053,0.047,0.082,0.064c0.005,0.003,0.005,0.01,0.01,0.012  l0.406,0.219c0.006,0.004,0.012,0.002,0.018,0.005c0.003,0.001,0.004,0.006,0.007,0.007l0.219,0.094  c0.006,0.003,0.012,0.002,0.018,0.004c0.003,0.001,0.003,0.004,0.006,0.006l0.281,0.094c0.005,0.001,0.009,0,0.014,0.002  c0.002,0,0.002,0.002,0.004,0.003l0.469,0.125c0.025,0.007,0.052,0.011,0.077,0.011c0.001,0,0.001-0.001,0.002-0.001h0.237  l0.492,0.03c0.006,0.001,0.013,0.001,0.019,0.001c0.012,0,0.024-0.001,0.037-0.002l0.229-0.028l0.327,0.187l-0.355,0.185  c-0.008,0.004-0.009,0.014-0.017,0.019s-0.018,0.001-0.025,0.007l-1.625,1.219c-0.014,0.01-0.013,0.029-0.024,0.041  c-0.011,0.011-0.029,0.01-0.039,0.023l-1.531,2.125c-0.013,0.018-0.005,0.039-0.014,0.058c-0.009,0.02-0.03,0.028-0.035,0.05  l-0.531,2.281c-0.003,0.014,0.007,0.023,0.006,0.035c-0.002,0.013-0.014,0.021-0.014,0.033v5.969c0,0.013,0.012,0.021,0.014,0.033  c0.001,0.013-0.009,0.023-0.006,0.035l0.531,2.25c0.006,0.024,0.026,0.037,0.037,0.059c0.007,0.016,0.001,0.033,0.011,0.047  l1.531,2.156c0.014,0.02,0.035,0.03,0.053,0.045c0.007,0.006,0.006,0.017,0.013,0.021l2.438,1.812  c0.011,0.009,0.024,0.006,0.036,0.013c0.01,0.005,0.011,0.017,0.021,0.021l3.156,1.406c0.013,0.006,0.025,0.005,0.038,0.009  c0.006,0.002,0.008,0.009,0.014,0.01l3.656,0.875c0.016,0.003,0.029,0.004,0.044,0.005c0.001,0,0.002,0.002,0.003,0.002l3.938,0.312  c0.008,0.001,0.016,0.001,0.023,0.001s0.016,0,0.023-0.001l3.969-0.312c0.002,0,0.002-0.002,0.004-0.002  c0.014-0.001,0.027-0.002,0.041-0.005l3.719-0.875c0.006-0.001,0.008-0.008,0.013-0.009c0.014-0.004,0.027-0.004,0.041-0.01  l3.156-1.406c0.004-0.002,0.005-0.007,0.009-0.009c0.006-0.003,0.014-0.002,0.02-0.005l5.156-3c0.003-0.002,0.003-0.006,0.005-0.007  c0.003-0.002,0.008-0.001,0.011-0.003l0.188-0.125l0.188-0.125l0.188-0.125c0.005-0.004,0.004-0.01,0.009-0.014  s0.013-0.002,0.018-0.006l0.188-0.156c0.009-0.008,0.007-0.02,0.015-0.027c0.017-0.018,0.037-0.027,0.05-0.049l0.081-0.136  l0.115-0.144l0.125-0.156c0.008-0.01,0.003-0.023,0.01-0.034c0.01-0.016,0.027-0.024,0.034-0.042l0.054-0.135l0.081-0.135  c0.01-0.016,0.001-0.033,0.008-0.05c0.008-0.021,0.027-0.032,0.031-0.056l0.031-0.188l0,0l0.029-0.146  c0.002-0.011-0.007-0.02-0.006-0.03s0.012-0.017,0.012-0.028v-0.181l0.06-2.651l3.122-2.788c0.003-0.003,0.002-0.006,0.004-0.009  c0.027-0.025,0.031-0.064,0.048-0.099c0.017-0.036,0.043-0.067,0.045-0.108c0-0.003,0.003-0.004,0.003-0.008v-2  c0-0.004-0.004-0.006-0.004-0.011c-0.001-0.003,0.003-0.006,0.003-0.01c-0.001-0.012-0.013-0.018-0.015-0.028  c-0.006-0.036-0.024-0.061-0.043-0.093c-0.015-0.026-0.019-0.056-0.041-0.075c-0.009-0.008-0.021-0.01-0.031-0.016  c-0.011-0.008-0.012-0.023-0.023-0.029l-0.052-0.029l0.748-1.912c0.009-0.023-0.005-0.045-0.001-0.068  c0.003-0.022,0.022-0.039,0.021-0.062c-0.001-0.012-0.012-0.018-0.014-0.027c-0.003-0.018-0.004-0.031-0.01-0.049  c-0.01-0.029-0.031-0.046-0.05-0.07c-0.02-0.025-0.031-0.049-0.058-0.067c-0.009-0.007-0.01-0.02-0.02-0.025l-1.005-0.57v-6.7  c0-0.014-0.013-0.021-0.015-0.035c-0.001-0.013,0.009-0.023,0.006-0.036l-0.344-1.406c-0.003-0.013-0.016-0.017-0.02-0.028  c-0.005-0.012,0.003-0.023-0.003-0.035l-0.024-0.049l-0.274-0.762c-0.008-0.021-0.031-0.029-0.044-0.048  c-0.002-0.005,0.002-0.011-0.001-0.017l-0.031-0.062c-0.006-0.012-0.02-0.011-0.026-0.021c-0.007-0.011-0.002-0.025-0.011-0.036  l-0.594-0.719c-0.004-0.004-0.01-0.003-0.014-0.007s-0.002-0.01-0.006-0.014l-0.031-0.031l-0.031-0.031  c-0.007-0.007-0.016-0.003-0.022-0.009c-0.008-0.006-0.007-0.018-0.015-0.023l-0.875-0.625c-0.021-0.014-0.044-0.006-0.065-0.016  c-0.005-0.002-0.005-0.008-0.01-0.01l-0.8-0.388v-0.624c0-0.022-0.019-0.036-0.023-0.057c-0.004-0.021,0.008-0.041-0.001-0.062  l-0.188-0.438c-0.006-0.014-0.021-0.017-0.029-0.028c-0.008-0.013-0.002-0.029-0.012-0.041l-0.192-0.24l-0.181-2.377  c-0.001-0.012-0.012-0.018-0.014-0.029c-0.002-0.011,0.006-0.02,0.003-0.029l-0.058-0.201l-0.312-1.496  c-0.001-0.003-0.003-0.004-0.004-0.006c0-0.002,0.002-0.004,0.001-0.006l-0.062-0.25c-0.003-0.012-0.016-0.017-0.021-0.027  c-0.004-0.012,0.004-0.023-0.002-0.035l-0.125-0.25l-0.188-0.375c-0.002-0.003-0.006-0.003-0.008-0.006  c-0.001-0.003,0.001-0.006-0.001-0.01l-0.29-0.502l-0.485-0.925c-0.003-0.007-0.012-0.007-0.016-0.013  c-0.003-0.006,0-0.014-0.004-0.02l-0.219-0.312c-0.002-0.003-0.006-0.002-0.008-0.005c-0.002-0.002,0-0.005-0.002-0.007  l-0.219-0.281c-0.006-0.009-0.018-0.008-0.024-0.015s-0.005-0.019-0.013-0.026l-0.281-0.25c-0.002-0.002-0.006,0-0.008-0.002  c-0.003-0.002-0.002-0.006-0.005-0.008l-1.062-0.844c-0.006-0.005-0.014-0.002-0.02-0.006c-0.007-0.004-0.006-0.014-0.013-0.018  l-0.312-0.188c-0.013-0.007-0.027,0-0.04-0.006c-0.014-0.006-0.019-0.021-0.032-0.025l-0.164-0.047l-0.36-0.277  c-0.009-0.006-0.02-0.002-0.029-0.008c-0.009-0.006-0.01-0.018-0.02-0.022l-0.25-0.125c-0.005-0.003-0.011,0.001-0.017-0.001  c-0.005-0.002-0.006-0.01-0.012-0.012l-0.25-0.094c-0.007-0.002-0.013,0.003-0.02,0.001s-0.01-0.01-0.017-0.012l-1.312-0.312  c-0.007-0.001-0.012,0.004-0.019,0.003s-0.011-0.008-0.018-0.01l-0.234-0.025L63.6,45.5c0.006-0.009,0-0.02,0.005-0.03  c0.006-0.013,0.02-0.02,0.024-0.034l4.145-12.747l2.019-3.288l0.53,0.297c0.016,0.009,0.033,0.007,0.049,0.013  c0.009,0.003,0.012,0.013,0.021,0.015l0.469,0.125c0.025,0.007,0.052,0.01,0.077,0.01c0.001,0,0.001,0,0.002,0h0.528l0.001,0  c0.021,0,0.041-0.002,0.062-0.007l0.594-0.125c0.007-0.001,0.009-0.009,0.016-0.011c0.018-0.004,0.035-0.004,0.052-0.012  l0.594-0.281c0.007-0.003,0.008-0.013,0.015-0.017c0.009-0.005,0.02-0.003,0.028-0.009l0.625-0.438  c0.005-0.003,0.005-0.011,0.01-0.015c0.005-0.004,0.013-0.002,0.018-0.007l0.562-0.5c0.006-0.005,0.005-0.015,0.01-0.021  c0.006-0.005,0.015-0.003,0.02-0.009l0.531-0.625c0.002-0.002,0.001-0.006,0.003-0.009c0.003-0.004,0.008-0.005,0.011-0.009  l0.5-0.688c0.004-0.005,0.001-0.013,0.004-0.018c0.007-0.01,0.018-0.014,0.022-0.024l0.125-0.25  c0.004-0.008-0.002-0.018,0.002-0.026c0.004-0.01,0.015-0.015,0.018-0.026l0.052-0.182l0.108-0.189  c0.003-0.005-0.001-0.011,0.002-0.016c0.003-0.006,0.01-0.009,0.013-0.015l0.094-0.219c0.003-0.007-0.002-0.015,0-0.022  c0.004-0.009,0.014-0.014,0.016-0.023l0.062-0.25l0.062-0.25c0,0,0,0,0,0l0.06-0.208c0.002-0.007-0.004-0.013-0.002-0.02  c0.001-0.008,0.01-0.012,0.011-0.02l0.031-0.219l0.028-0.2l0.057-0.197c0.004-0.015-0.007-0.028-0.005-0.042  c0.002-0.015,0.017-0.024,0.017-0.04v-0.219v-0.219v-0.42l3.476-2.007c0.004-0.002,0.004-0.008,0.008-0.01  c0.005-0.003,0.012-0.002,0.017-0.005l0.219-0.156l0.219-0.156c0.008-0.006,0.007-0.017,0.015-0.022  c0.006-0.006,0.016-0.003,0.022-0.01l0.188-0.188c0.003-0.003,0.002-0.008,0.005-0.012c0.003-0.003,0.008-0.001,0.011-0.005  l0.188-0.219c0.002-0.003,0.001-0.007,0.003-0.009c0.004-0.005,0.01-0.007,0.014-0.012l0.156-0.219c0.001-0.002,0-0.004,0.002-0.006  c0.002-0.004,0.007-0.005,0.009-0.009l0.156-0.25l0.156-0.25c0.005-0.008,0-0.018,0.004-0.026c0.006-0.011,0.018-0.016,0.022-0.028  l0.094-0.25c0.001-0.002-0.001-0.004,0-0.006c0-0.002,0.002-0.002,0.003-0.004l0.09-0.269c0,0,0.001-0.001,0.001-0.001l0.094-0.25  c0.004-0.012-0.004-0.023-0.001-0.035c0.003-0.013,0.016-0.02,0.018-0.034l0.031-0.25c0.001-0.007-0.006-0.012-0.005-0.02  c0-0.007,0.007-0.011,0.007-0.018v-0.25v-2.417l0.127-0.071c0.003-0.002,0.003-0.006,0.007-0.008  c0.004-0.003,0.01-0.001,0.014-0.004l0.562-0.375c0.008-0.005,0.007-0.015,0.014-0.021c0.027-0.021,0.056-0.04,0.075-0.071  l0.406-0.656c0.011-0.017,0.002-0.036,0.009-0.054c0.009-0.021,0.029-0.035,0.033-0.06l0.125-0.844  c0.002-0.015-0.011-0.026-0.011-0.041c0.001-0.015,0.014-0.026,0.012-0.042l-0.125-0.969c-0.002-0.013-0.015-0.019-0.018-0.031  c-0.003-0.012,0.005-0.023,0.001-0.035l-0.406-1.094c-0.003-0.007-0.011-0.008-0.014-0.015c-0.003-0.007,0.002-0.014-0.002-0.021  l-0.562-1.062c-0.004-0.008-0.015-0.008-0.02-0.016c-0.004-0.007,0-0.017-0.006-0.024l-0.409-0.545V8.969  c0-0.028-0.022-0.046-0.03-0.072c-0.006-0.026,0.004-0.053-0.01-0.078c-0.001-0.001-0.003-0.001-0.004-0.003  c-0.001-0.002,0-0.004-0.001-0.006l-0.156-0.25l-0.156-0.25c-0.005-0.008-0.016-0.008-0.021-0.015  c-0.005-0.007-0.002-0.017-0.008-0.023L80.34,8.045l-0.11-0.194c-0.006-0.01-0.019-0.01-0.025-0.02  c-0.006-0.009-0.002-0.021-0.01-0.029l-0.219-0.25c-0.003-0.003-0.007-0.002-0.01-0.005c-0.003-0.002-0.001-0.007-0.004-0.009  l-0.188-0.188l-0.219-0.219l-0.219-0.219c-0.007-0.006-0.017-0.004-0.022-0.01c-0.008-0.006-0.007-0.017-0.015-0.022l-0.219-0.156  c0,0,0,0-0.001,0l-0.234-0.176l-0.185-0.154c-0.01-0.008-0.024-0.004-0.035-0.011c-0.011-0.007-0.012-0.021-0.023-0.027  l-0.235-0.118l-0.424-0.272c-0.005-0.003-0.012,0-0.017-0.003c-0.006-0.003-0.006-0.01-0.012-0.013l-0.25-0.125  c-0.005-0.003-0.011,0.001-0.017-0.001c-0.005-0.002-0.006-0.009-0.012-0.011l-0.239-0.09l-0.21-0.09l-0.179-0.089  c-0.017-0.008-0.034,0.001-0.052-0.004s-0.026-0.023-0.045-0.025l-0.246-0.031l-0.179-0.03L76.3,5.423  c-0.011-0.002-0.017,0.007-0.026,0.006c-0.009-0.001-0.015-0.01-0.023-0.01h-0.219c-0.009,0-0.015,0.009-0.023,0.01  c-0.01,0.001-0.016-0.007-0.026-0.006l-0.188,0.031l-0.188,0.031c-0.021,0.003-0.029,0.023-0.048,0.03  c-0.019,0.006-0.039-0.002-0.057,0.008l-0.137,0.083l-0.133,0.053c-0.008,0.003-0.009,0.012-0.016,0.016  c-0.008,0.003-0.016-0.001-0.023,0.003l-14.625,8.438c-0.005,0.003-0.005,0.01-0.01,0.013c-0.005,0.003-0.012,0-0.017,0.004  l-0.688,0.5c-0.013,0.009-0.012,0.026-0.022,0.037c-0.011,0.01-0.026,0.008-0.036,0.02l-0.469,0.594  c-0.011,0.014-0.005,0.032-0.014,0.047c-0.008,0.014-0.026,0.019-0.032,0.035l-0.219,0.594c-0.002,0.005,0.002,0.01,0.001,0.016  c-0.002,0.005-0.009,0.007-0.01,0.013l-0.875,3.375c-0.004,0.014,0.007,0.025,0.005,0.039c0,0.005-0.005,0.008-0.005,0.014  L42.81,28.28l-1.258-0.699c-0.012-0.007-0.025,0-0.038-0.004c-0.037-0.015-0.07-0.013-0.11-0.013c-0.039,0-0.072-0.001-0.108,0.014  c-0.013,0.005-0.026-0.002-0.038,0.005l-3.75,2.156c-0.007,0.004-0.007,0.013-0.014,0.017c-0.006,0.004-0.015,0.001-0.021,0.006  l-3.438,2.656v0l-0.405,0.312c-0.012,0.009-0.011,0.025-0.021,0.035s-0.025,0.009-0.034,0.02l-0.312,0.406  c-0.004,0.005-0.001,0.013-0.005,0.018s-0.012,0.005-0.015,0.011l-0.281,0.469c-0.002,0.003,0,0.008-0.002,0.011  c-0.002,0.004-0.008,0.004-0.01,0.009l-0.041,0.082l-1.189-0.734c-0.014-0.008-0.029-0.001-0.043-0.007  c-0.037-0.016-0.069-0.017-0.109-0.018c-0.04,0-0.073,0-0.11,0.014c-0.015,0.006-0.03-0.002-0.044,0.006l-4.312,2.469  c-0.012,0.007-0.013,0.021-0.022,0.03c-0.011,0.007-0.025,0.004-0.035,0.013l-0.625,0.594c-0.017,0.016-0.014,0.04-0.026,0.058  c-0.012,0.017-0.033,0.021-0.042,0.041l-0.375,0.875c-0.006,0.014,0.003,0.027-0.001,0.041s-0.019,0.021-0.021,0.035l-0.104,0.73  l-4.093,2.365c-0.012,0.007-0.013,0.022-0.023,0.031c-0.011,0.008-0.026,0.004-0.036,0.014L17.79,44.16  c-0.001,0,0,0.002-0.001,0.002c-0.009,0.009-0.008,0.024-0.015,0.034c-0.009,0.01-0.023,0.01-0.03,0.021  c-0.016,0.024-0.005,0.052-0.013,0.079s-0.03,0.048-0.03,0.076c0,0.001-0.001,0.001-0.001,0.002v0.75  c0,0.013,0.013,0.021,0.014,0.033C17.719,45.199,17.737,45.227,17.757,45.263z M22.231,47.237l-0.4-0.226V46.95l0.4,0.226V47.237z   M31.366,66.43l-0.029-0.016l-0.115-0.117l-0.083-0.187l-0.025-0.3l0.026-0.345l0.113-0.368l0.163-0.382l0.093-0.123L31.366,66.43z   M26.883,39.646c-0.024,0.014-0.028,0.042-0.047,0.061c-0.02,0.018-0.048,0.021-0.062,0.045c-0.008,0.013-0.001,0.028-0.006,0.042  c-0.017,0.037-0.017,0.07-0.018,0.11c0,0.001,0,0.002,0,0.003l-0.904,0.526l-0.005-0.003c-0.013-0.008-0.028,0-0.042-0.006  c-0.026-0.011-0.047-0.017-0.075-0.021c-0.014-0.002-0.022-0.016-0.037-0.016c-0.014,0-0.021,0.013-0.035,0.015  c-0.026,0.003-0.046,0.009-0.07,0.02c-0.015,0.005-0.029-0.002-0.043,0.005l-1.312,0.75c-0.024,0.014-0.028,0.042-0.048,0.061  c-0.019,0.018-0.047,0.021-0.061,0.045c-0.008,0.013-0.001,0.028-0.006,0.042c-0.017,0.037-0.017,0.07-0.018,0.11c0,0,0,0,0,0  l-2.305,1.32l1.549-1.515l4.004-2.331l0.405,0.241L26.883,39.646z M27.576,41.159l1.172-0.658l1.032,0.596l-0.245,0.145  c-0.012,0.007-0.013,0.023-0.023,0.031c-0.023,0.018-0.038,0.036-0.055,0.06c-0.011,0.014-0.03,0.017-0.038,0.033  c-0.002,0.004,0.001,0.009-0.001,0.013l-0.757,0.404L27.576,41.159z M29.298,40.125c0.003-0.005,0.004-0.013,0.007-0.019  c0.021-0.035,0.039-0.063,0.043-0.104c0.002-0.013,0.015-0.021,0.015-0.035v-0.133l1.293,0.74l-0.283,0.17L29.298,40.125z   M27.666,43.684l0.044,0.022c0.043,0.021,0.089,0.032,0.134,0.032c0.052,0,0.104-0.014,0.152-0.042l1.057-0.622l0.05-0.025  c0.01-0.005,0.009-0.016,0.018-0.021c0.012-0.007,0.025-0.004,0.036-0.013l0.156-0.125c0.009-0.007,0.008-0.02,0.015-0.027  c0.019-0.018,0.041-0.03,0.055-0.053c0.012-0.02,0.003-0.042,0.01-0.063c0.012-0.034,0.021-0.061,0.021-0.096l0.817-0.477  l0.061-0.025l0.024,0.015c0.001,0,0.002,0,0.003,0.001c0.047,0.027,0.099,0.042,0.151,0.042c0.015,0,0.028-0.009,0.042-0.011  c0.036-0.005,0.073-0.01,0.105-0.028c0,0,0.001,0,0.001,0l0.646-0.37c0.001,0,0.001,0,0.001,0l0.009-0.005  c0.001,0,0.001-0.002,0.003-0.003c0.002-0.001,0.005,0,0.007-0.002l0.502-0.311l0.308,0.18l-3.624,2.103l-2.311,0.791L27.666,43.684  z M22.37,45.738c0.005-0.004,0.003-0.013,0.008-0.018c0.006-0.005,0.016-0.003,0.021-0.009s0.004-0.016,0.009-0.022  c0.007-0.005,0.017-0.003,0.022-0.009c0.012-0.012,0.009-0.03,0.019-0.044c0,0,0.001,0,0.002-0.001l0.363,0.215v0l0.027,0.016  l-0.123,0.069L22.37,45.738z M28.794,45.285l-5.703,1.931c-0.014,0.005-0.019,0.021-0.031,0.027c-0.012,0.006-0.026,0-0.038,0.007  l-0.06,0.04l-0.131,0.044v-0.12l5.963-2.044V45.285z M28.97,44.475l-5.045,1.73V46c0-0.018-0.016-0.028-0.019-0.045  c0-0.003,0.001-0.005,0-0.008l0.117-0.035c0.001,0,0.001-0.001,0.002-0.002c0.003-0.001,0.006,0,0.009-0.001l4.656-1.594  c0.007-0.002,0.009-0.011,0.017-0.014c0.012-0.005,0.025-0.003,0.037-0.01l4.059-2.355l0.315,0.185L28.97,44.475z M31.637,43.674  c-0.001,0.001-0.001,0.002-0.003,0.003c-0.001,0-0.002,0-0.003,0l-2.237,1.301v-0.054l4.025-2.285v0.057L31.637,43.674z   M33.616,43.975l-0.25,0.538l-0.976-0.567l1.33-0.729L33.616,43.975z M37.896,41.51l-0.347,0.748l-3.377,1.947l0.007-0.015  c0.007-0.014-0.003-0.029,0.002-0.043c0.005-0.016,0.021-0.024,0.022-0.042l0.156-1.125c0.002-0.014-0.01-0.025-0.01-0.039  c0-0.015,0.013-0.025,0.011-0.04l-0.156-1.25c-0.001-0.01-0.011-0.015-0.014-0.024c-0.001-0.009,0.006-0.017,0.003-0.026  l-0.406-1.344c-0.003-0.008-0.012-0.011-0.016-0.019c-0.003-0.007,0.003-0.016-0.001-0.023l-0.506-1.062l3.751-2.163l0.079,0.181  l0.027,0.08c0.001,0.002,0.003,0.004,0.004,0.006c0.003,0.007,0.01,0.01,0.013,0.017c0.003,0.007-0.002,0.015,0.002,0.021  l0.361,0.693l0.336,1.128c0.001,0.002,0.003,0.003,0.003,0.004c0.001,0.002-0.001,0.003,0,0.005l0.051,0.152l0.119,1.192  L37.896,41.51z M36.284,34.652c0.001-0.005,0.006-0.008,0.007-0.013l-0.004,0.036C36.289,34.667,36.283,34.66,36.284,34.652z   M36.285,34.686l-0.016,0.147l-0.105,0.262c0,0,0,0,0,0l-0.143,0.313l-0.094,0.125l-0.04-0.026l0.081-0.122  c0.001-0.002,0-0.005,0.001-0.007c0.002-0.002,0.005-0.003,0.006-0.005l0.188-0.312c0.006-0.01,0-0.021,0.005-0.032  c0.007-0.014,0.021-0.021,0.025-0.036L36.285,34.686z M36.101,33.092c-0.017-0.011-0.036-0.003-0.053-0.01  c-0.018-0.008-0.025-0.027-0.045-0.031l-0.281-0.062c-0.019-0.004-0.032,0.01-0.051,0.009c-0.018-0.001-0.029-0.016-0.048-0.014  l-0.019,0.002l2.965-2.264l2.256-1.296v3.8l-2.097,1.58l-0.263,0.058c-0.009,0.002-0.013,0.012-0.021,0.015  c-0.008,0.002-0.017-0.004-0.024,0l-0.312,0.125c-0.012,0.005-0.015,0.019-0.025,0.025c-0.011,0.006-0.024,0-0.035,0.008  l-0.312,0.219c-0.015,0.01-0.014,0.029-0.025,0.041c-0.013,0.012-0.032,0.011-0.043,0.025l-0.041,0.054l-0.836,0.304l0.14-0.303  c0.003-0.006-0.002-0.012,0.001-0.018c0.003-0.008,0.011-0.011,0.014-0.02l0.125-0.406c0.002-0.007-0.004-0.013-0.002-0.02  c0.002-0.008,0.01-0.011,0.011-0.019l0.062-0.375c0.003-0.019-0.012-0.033-0.012-0.052c0-0.018,0.015-0.033,0.011-0.051  l-0.062-0.344c-0.002-0.013-0.016-0.019-0.02-0.031c-0.004-0.013,0.005-0.025-0.001-0.038l-0.125-0.281  c-0.01-0.023-0.035-0.029-0.05-0.047c-0.015-0.019-0.014-0.045-0.032-0.061l-0.188-0.156c-0.005-0.004-0.013-0.002-0.019-0.006  c-0.005-0.004-0.005-0.012-0.011-0.016L36.101,33.092z M38.208,36.746c-0.004,0.008-0.015,0.01-0.018,0.018l-0.188,0.469  c-0.001,0.003,0.001,0.006,0,0.01c-0.001,0.003-0.005,0.004-0.006,0.007l-0.08,0.239l-0.179-0.343c0.002-0.003,0-0.007,0.001-0.01  c0.005-0.012,0.018-0.019,0.021-0.031l0.026-0.107l0.048-0.119l0.148-0.297l0.262-0.407l0.293-0.41l0.319-0.291l0.174-0.145  l2.275-1.714c0,0,0.001,0,0.001,0l0.862-0.653l0.187,0.121l-3.1,2.367c-0.006,0.005-0.005,0.013-0.011,0.018  s-0.014,0.003-0.02,0.008l-0.344,0.344c-0.002,0.002-0.001,0.005-0.003,0.006c-0.001,0.002-0.004,0.001-0.006,0.003l-0.344,0.375  c-0.008,0.008-0.004,0.021-0.011,0.03c-0.007,0.009-0.02,0.009-0.025,0.019l-0.281,0.469C38.207,36.729,38.212,36.737,38.208,36.746  z M41.425,32.771v-3.348l2.819,1.61l-2.238,1.301C42,32.338,42,32.346,41.994,32.349c-0.006,0.004-0.014,0.001-0.02,0.005  L41.425,32.771z M46.356,34.188v1.42l-3.613,2.09l-3.398,1.328l-0.278,0.076l-0.24-0.022l-0.164-0.073l-0.125-0.167l-0.118-0.237  l-0.024-0.319l0.028-0.418l0.139-0.417l0.177-0.442l0.253-0.421l0.317-0.347l0.327-0.327l3.402-2.598l3.318-1.92V34.188z   M61.141,27.056l0.561,0.302c0.046,0.024,0.095,0.036,0.143,0.036c0.01,0,0.019-0.007,0.029-0.008  c0.041-0.004,0.082-0.012,0.118-0.032c0.016-0.009,0.024-0.026,0.039-0.038c0.024-0.021,0.052-0.038,0.069-0.066l1.455-2.384  l3.937,2.301l-1.436,2.365c-0.043,0.071-0.053,0.153-0.034,0.228c0.015,0.06,0.06,0.107,0.109,0.149  c0.012,0.01,0.013,0.027,0.026,0.036c0.001,0,0.001,0.001,0.001,0.001l0.523,0.314l-1.309,2.163l-0.739-0.485  c-0.002-0.001-0.005,0-0.007-0.001c-0.002-0.001-0.001-0.003-0.003-0.004c-0.001-0.001-0.003,0-0.004,0  c-0.002-0.001-0.002-0.003-0.003-0.003l-4.766-2.723L61.141,27.056z M66.624,24.969l0.888,1.516l-3.449-2.016l0.845-0.496  L66.624,24.969z M65.509,23.628l0.229-0.13l0.244,0.404L65.509,23.628z M47.537,47.219C47.537,47.219,47.537,47.219,47.537,47.219  l11.031-18.087l0.712,0.437c0.001,0,0.002,0,0.002,0c0.001,0,0.001,0.001,0.001,0.001c0.001,0.001,0.003,0,0.005,0.001  c0,0,0,0.001,0.001,0.001l4.764,2.722L48.649,57.688c-0.003,0.004,0,0.01-0.002,0.014s-0.008,0.004-0.01,0.008l-0.688,1.375  c-0.004,0.009,0.002,0.018-0.002,0.026c-0.003,0.008-0.013,0.011-0.016,0.019l-0.438,1.406c-0.002,0.008,0.004,0.015,0.002,0.022  s-0.011,0.011-0.012,0.019l-0.219,1.344c-0.002,0.015,0.01,0.025,0.009,0.039c0,0.016-0.014,0.025-0.012,0.041l0.125,1.219  c0.002,0.018,0.018,0.027,0.022,0.043c0.003,0.014-0.006,0.027,0,0.042l0.226,0.538l-4.794-2.769l-0.558-0.585l-0.227-0.51  c-0.003-0.011,0.004-0.021,0-0.031l-0.137-0.328l-0.059-1.109l0.18-1.316l0.116-0.349c0.003-0.01-0.004-0.019-0.002-0.028  c0-0.002,0-0.003,0.001-0.004c0-0.002,0.002-0.002,0.003-0.004l0.305-0.977l0.67-1.309l0.776-1.273  c0.008-0.013,0.001-0.027,0.007-0.041l2.119-3.491c0,0,0-0.001,0-0.002L47.537,47.219z M41.657,55.898  c-0.011,0.033-0.02,0.067-0.02,0.102v0.031v0.047l-0.025,0.229l-0.004,0.031c0,0,0,0,0,0.001v0.003c0,0.001,0.001,0.002,0.001,0.002  c0,0.002-0.002,0.002-0.002,0.004l-0.031,0.341c-0.001,0.011-0.007,0.021-0.007,0.031l-0.104,0.311  c-0.003,0.009,0.004,0.018,0.002,0.027c-0.003,0.011-0.013,0.016-0.015,0.026l-0.069,0.506c-0.056,0.076-0.062,0.166-0.034,0.257  l-0.084,0.612c-0.001,0.011,0.008,0.018,0.007,0.027c0,0.012-0.011,0.019-0.01,0.029l0.062,1.188c0.001,0.02,0.018,0.03,0.022,0.049  c0.003,0.014-0.005,0.027,0,0.041l-0.025,0.002c-0.03,0.002-0.049,0.027-0.076,0.037c-0.006,0.001-0.009-0.004-0.015-0.003  l-0.115,0.019l-0.74-0.237l-0.566-0.54l-0.395-0.816l-0.145-1.068l0.148-1.277l0.425-1.334l0.635-1.359l0.849-1.213l0.938-0.997  l1.039-0.772l1.017-0.406l0.88-0.085l0.106,0.023l-1.892,3.116c-0.001,0-0.001,0-0.002,0.001c-0.002,0.002-0.001,0.005-0.003,0.007  l-0.002,0.003c-0.002,0.003-0.006,0.001-0.009,0.005l-0.216,0.246l-0.239,0.239c-0.016,0.016-0.012,0.039-0.023,0.058  c-0.006,0.006-0.01,0.013-0.016,0.02c-0.003,0.003-0.008,0.002-0.011,0.006l-0.008,0.008c-0.001,0.002-0.004,0.002-0.005,0.003  c-0.002,0.002-0.001,0.006-0.003,0.008l-0.01,0.011c-0.002,0.004-0.007,0.002-0.01,0.006l-0.125,0.156l-0.125,0.156l-0.25,0.312  c-0.026,0.033-0.022,0.074-0.032,0.113c-0.004,0.008-0.008,0.015-0.011,0.023l-0.016,0.033c-0.002,0.003-0.005,0.006-0.007,0.008  c-0.001,0.002,0.001,0.004,0,0.007c-0.001,0.002-0.004,0.002-0.005,0.004l-0.151,0.334l-0.183,0.334  c-0.014,0.024-0.002,0.052-0.008,0.077c-0.002,0.005-0.004,0.01-0.006,0.015l-0.013,0.03c-0.003,0.004-0.008,0.008-0.01,0.012  s0.001,0.009-0.001,0.014l-0.001,0.002c-0.002,0.004-0.006,0.004-0.008,0.008L41.8,55.412l-0.015,0.035c0,0,0,0.001,0,0.002  l-0.001,0.002c-0.001,0.004,0.001,0.006,0,0.01c-0.001,0.003-0.005,0.004-0.006,0.007l-0.125,0.375  C41.646,55.862,41.66,55.879,41.657,55.898z M33.985,54.857l-0.344,2.062c-0.001,0.005,0.004,0.01,0.004,0.015  c-0.001,0.005-0.007,0.008-0.007,0.013l-0.812,11.656c0,0.002,0.001,0.002,0.001,0.004s-0.002,0.002-0.002,0.004l-0.031,0.688  c0,0.01,0.008,0.015,0.009,0.023c0,0.009-0.008,0.015-0.007,0.023l0.046,0.414l-0.014-0.024l-0.181-0.392  c-0.004-0.008-0.014-0.01-0.018-0.017c-0.004-0.008,0-0.017-0.005-0.024l-0.031-0.047l-0.097-0.242  c-0.006-0.015-0.023-0.019-0.031-0.031l-0.025-0.077c-0.004-0.011-0.017-0.014-0.021-0.024c-0.005-0.01,0.001-0.021-0.005-0.032  l-0.196-0.337l-0.053-0.209c0-0.002-0.003-0.004-0.004-0.006c0-0.001,0.002-0.003,0.001-0.004l-0.119-0.416l-0.028-0.201  l-0.06-0.416v-0.172c0.037-0.075,0.032-0.161,0-0.238v-0.131v-0.146l0.218-2.8v-0.001c0-0.001,0-0.001,0-0.001l0.623-8.727  l0.309-1.758l0.571-1.715c0.009-0.012,0.021-0.017,0.028-0.029l0.834-1.638l1.05-1.482c0.007-0.01,0.002-0.022,0.008-0.033  l1.256-1.286l1.341-0.945l0.136-0.081l1.336-0.607l0.188-0.053l0.263-0.059l1.346-0.184h0.289h0.129l-1.371,0.58  c-0.012,0.005-0.015,0.02-0.025,0.026c-0.012,0.006-0.024,0-0.035,0.008l-1.656,1.219c-0.007,0.005-0.006,0.015-0.013,0.021  c-0.006,0.005-0.016,0.003-0.021,0.009l-1.562,1.562c-0.007,0.007-0.004,0.018-0.011,0.025c-0.006,0.008-0.018,0.007-0.023,0.015  l-1.312,1.875c-0.005,0.006-0.001,0.015-0.005,0.021c-0.004,0.006-0.013,0.006-0.016,0.013l-1.062,2.063  c-0.004,0.007,0.001,0.014-0.002,0.021s-0.012,0.01-0.015,0.017l-0.75,2.156c-0.003,0.009,0.004,0.017,0.002,0.025  C33.997,54.843,33.987,54.848,33.985,54.857z M38.591,48.221l-0.716,0.761c-0.005,0.005-0.003,0.013-0.007,0.018  c-0.005,0.005-0.013,0.004-0.017,0.01l-1.375,1.875c-0.006,0.007-0.001,0.017-0.006,0.024c-0.005,0.007-0.015,0.008-0.019,0.016  l-1.062,2.063c-0.004,0.006,0.001,0.014-0.002,0.021s-0.012,0.009-0.015,0.017l-0.726,2.057l0.021-0.135l0.703-2.05l1.041-1.989  l1.317-1.809L38.591,48.221z M37.365,72.169L37.286,72.2h-0.005H37.25h-0.031h-0.062c-0.007,0-0.011,0.007-0.018,0.007  c-0.007,0.001-0.012-0.006-0.02-0.005l-0.224,0.028l-0.471-0.029c-0.005-0.001-0.009,0.002-0.014,0.001  c-0.002,0-0.003-0.002-0.005-0.002h-0.209l-0.426-0.113l-0.258-0.086l-0.195-0.084l-0.341-0.184l-0.087-0.108  c-0.004-0.005-0.012-0.004-0.016-0.009c-0.01-0.011-0.02-0.017-0.03-0.025c-0.007-0.006-0.006-0.017-0.014-0.022l-0.158-0.113  l-0.029-0.059c-0.007-0.013-0.022-0.014-0.03-0.025s-0.003-0.027-0.013-0.037l-0.191-0.219l-0.188-0.406l-0.142-0.507l-0.029-0.531  v-0.664l0.811-11.625l0.337-2.056l0.736-2.084l1.04-2.02l1.351-1.842l1.469-1.561l1.604-1.149l1.561-0.661l1.462-0.205l0.787,0.204  c0.001,0,0.001,0,0.002,0c0,0,0,0,0,0l0.25,0.062l0.194,0.049l0.171,0.122l1.033,0.79l0.055,0.064l-1.275,2.126l-0.352-0.078  c-0.019-0.004-0.032,0.009-0.05,0.009c-0.017-0.002-0.028-0.015-0.045-0.015l-0.969,0.094c-0.016,0.001-0.024,0.017-0.039,0.021  c-0.015,0.003-0.029-0.006-0.043,0l-1.094,0.438c-0.014,0.005-0.017,0.021-0.028,0.028c-0.013,0.006-0.027,0.001-0.039,0.01  l-1.094,0.812c-0.008,0.006-0.007,0.017-0.014,0.023c-0.008,0.006-0.02,0.004-0.026,0.012l-0.969,1.032  c-0.006,0.006-0.003,0.015-0.008,0.021c-0.006,0.006-0.015,0.005-0.02,0.012l-0.875,1.25c-0.006,0.008-0.001,0.019-0.006,0.027  c-0.005,0.008-0.016,0.009-0.02,0.018l-0.656,1.406c-0.003,0.006,0.002,0.014-0.001,0.02c-0.003,0.008-0.012,0.01-0.014,0.017  l-0.438,1.375c-0.002,0.005,0.003,0.009,0.001,0.015c-0.004,0.014-0.011,0.026-0.013,0.041l-0.156,1.344  c-0.002,0.015,0.011,0.024,0.011,0.038s-0.012,0.023-0.01,0.037l0.156,1.156c0.002,0.019,0.019,0.028,0.023,0.044  s-0.004,0.031,0.003,0.047l0.438,0.906c0.012,0.023,0.033,0.035,0.049,0.055c0.008,0.009,0.005,0.023,0.015,0.031l0.656,0.625  c0.019,0.018,0.044,0.015,0.065,0.026c0.02,0.012,0.027,0.035,0.05,0.042l0.875,0.281c0.03,0.01,0.062,0.016,0.092,0.016  c0.001,0,0.001-0.001,0.002-0.001c0.016-0.001,0.031-0.001,0.048-0.004l0.174-0.028l0.274-0.018l0.165,0.372  c0.01,0.022,0.03,0.034,0.045,0.052c0.008,0.01,0.004,0.023,0.013,0.033l0.625,0.656c0.011,0.012,0.027,0.008,0.039,0.017  c0.012,0.01,0.013,0.028,0.027,0.036l5.854,3.379l-0.33,0.511c0,0.001,0,0.001,0,0.002c-0.001,0.001-0.002,0.001-0.003,0.002  L48.005,65.5c-0.009,0-0.018,0.003-0.026,0.002c-0.039-0.001-0.072-0.006-0.109,0.008c-0.012,0.004-0.023-0.002-0.034,0.003  l-0.125,0.062c-0.009,0.005-0.01,0.017-0.019,0.021s-0.02,0.001-0.027,0.007l-0.248,0.186l-0.082,0.055  c-0.001,0.001-0.001,0.003-0.002,0.004c-0.001,0-0.003,0-0.004,0l-0.293,0.205L46.741,66.2c-0.003,0.001-0.003,0.006-0.007,0.007  c-0.003,0.002-0.007,0-0.01,0.002l-7.619,4.402l-0.302,0.151c-0.006,0.003-0.006,0.01-0.011,0.013c-0.006,0.003-0.012,0-0.017,0.003  l-0.329,0.21l-0.109,0.055l-0.24,0.106c-0.032,0.007-0.054,0.03-0.082,0.047c-0.034,0.02-0.062,0.035-0.087,0.065  c-0.009,0.012-0.024,0.013-0.032,0.025c-0.015,0.025-0.004,0.053-0.011,0.079c-0.001,0.003-0.002,0.005-0.003,0.007  c-0.001,0.004-0.003,0.006-0.004,0.01c-0.003,0.014-0.015,0.023-0.016,0.037c-0.007,0.014-0.015,0.025-0.021,0.039l-0.093,0.248  c-0.002,0.005,0.002,0.01,0,0.014c-0.001,0.004-0.006,0.006-0.007,0.01l-0.045,0.157l-0.108,0.13l-0.057,0.057  c-0.003,0.002-0.008,0-0.011,0.001c-0.004,0.002-0.004,0.007-0.008,0.009c-0.004,0.003-0.009,0-0.013,0.002L37.365,72.169z   M49.07,64.902c0.003-0.02,0.011-0.039,0.011-0.059v-0.069l0.304-1.853l0.332-0.967c0.011-0.018,0.03-0.029,0.037-0.051l0.272-0.848  l0.949-1.807l1.162-1.651l0.73-0.73l0.64-0.64l0.109-0.082l0,0l1.429-1.064l0.143-0.047c0.004-0.002,0.004-0.006,0.008-0.008  c0.007-0.002,0.014-0.001,0.021-0.004l1.506-0.676l0.204-0.051l-0.829,0.366c-0.011,0.005-0.013,0.018-0.022,0.023  c-0.01,0.005-0.021,0.001-0.031,0.007l-1.656,1.188c-0.008,0.006-0.007,0.017-0.014,0.022s-0.017,0.003-0.023,0.01l-1.562,1.562  c-0.007,0.007-0.004,0.017-0.01,0.023s-0.017,0.006-0.022,0.014l-1.344,1.875c-0.006,0.008-0.001,0.018-0.006,0.025  s-0.016,0.009-0.02,0.017l-1.031,2.094c-0.003,0.007,0.001,0.014-0.001,0.021c-0.003,0.006-0.011,0.007-0.013,0.014l-0.75,2.156  c-0.003,0.009,0.004,0.017,0.002,0.026c-0.003,0.009-0.013,0.013-0.015,0.021l-0.344,2.031c-0.001,0.006,0.004,0.011,0.004,0.017  c-0.001,0.005-0.007,0.008-0.007,0.013l-0.812,11.68c0,0-0.001,0-0.001,0.001l-0.051,0.532l-0.071-0.215l-0.029-0.524  c-0.001-0.017-0.015-0.026-0.019-0.042c-0.002-0.013,0.007-0.023,0.003-0.036l-0.011-0.031c0.017-0.077,0.005-0.146-0.036-0.211  v-0.437l0.748-10.32c0-0.001,0.001-0.002,0.001-0.002l0.125-1.281C49.081,64.923,49.07,64.914,49.07,64.902z M49.732,60.326  l0.001-0.015l0.262-0.757l0.354-0.738l0.534-0.683l0.485-0.485l-0.896,1.272c-0.004,0.006-0.001,0.014-0.005,0.021  c-0.004,0.006-0.012,0.006-0.016,0.013L49.732,60.326z M54.887,56.379l-1.444,1.474c-0.006,0.006-0.003,0.015-0.008,0.021  c-0.006,0.006-0.016,0.006-0.021,0.012l-1.375,1.875c-0.006,0.008-0.002,0.019-0.007,0.027c-0.005,0.008-0.016,0.009-0.021,0.018  l-1.031,2.094c-0.003,0.007,0.001,0.014-0.001,0.02c-0.003,0.006-0.011,0.008-0.013,0.014l-0.641,1.814l0.639-1.973l1.041-1.99  l1.317-1.807l1.468-1.529L54.887,56.379z M52.565,67.486c0.001,0.002,0.003,0.003,0.004,0.005s-0.001,0.004,0,0.006l0.125,0.281  c0.004,0.009,0.013,0.012,0.017,0.02c0.003,0.005,0,0.013,0.003,0.018l0.156,0.25c0.006,0.009,0.016,0.013,0.022,0.021  c0.003,0.005,0.001,0.012,0.005,0.016l0.188,0.219c0.002,0.002,0.006,0.002,0.008,0.004c0.003,0.002,0.002,0.006,0.004,0.009  l7.375,7.656c0.001,0.001,0.002,0.001,0.003,0.001c0.001,0.001,0,0.002,0.001,0.003l0.156,0.156  c0.008,0.008,0.021,0.005,0.028,0.012c0.009,0.007,0.008,0.02,0.018,0.026l0.188,0.125c0.013,0.008,0.027,0.006,0.04,0.012  c0.009,0.004,0.011,0.016,0.021,0.02l0.25,0.094c0.019,0.007,0.038,0.007,0.057,0.01c0.005,0.001,0.007,0.006,0.012,0.007  l0.25,0.031c0.013,0.001,0.025,0.002,0.037,0.002h0.23l0.243,0.026l-0.312,0.195l-0.75,0.438l-6.212,3.59l-0.471,0.236l-0.421,0.14  l-0.41,0.055l-0.384-0.027L52.7,81.061l-0.281-0.154l-0.27-0.215l-0.237-0.29l-0.159-0.345l-0.111-0.444l-0.029-0.505V78.54  l0.828-11.382c0.002,0.006-0.002,0.01,0,0.016L52.565,67.486z M51.824,81.727c0.008,0.002,0.016,0.002,0.023,0.003  c0.002,0.001,0.003,0.003,0.005,0.003l0.344,0.062c0.019,0.004,0.036,0.006,0.054,0.006l0.001-0.001h0.53h0.312  c0.009,0,0.018,0,0.027-0.001l0.344-0.031c0.001,0,0.001-0.001,0.002-0.001c0.003,0,0.007,0,0.011-0.001l0.469-0.062  c0.004,0,0.005-0.004,0.009-0.005c0.016-0.003,0.031-0.003,0.046-0.007l0.469-0.156c0.005-0.002,0.006-0.008,0.011-0.01  c0.01-0.004,0.02-0.002,0.028-0.007l0.5-0.25c0.003-0.001,0.003-0.005,0.005-0.006c0.004-0.002,0.008-0.001,0.012-0.003l3.664-2.117  l-1.15,1.021l-2.213,1.384l-1.301,0.604l-2.476,0.581l-2.706,0.185l-2.675-0.185l-2.479-0.581l-1.802-0.801l-0.781-3.787  c-0.001-0.003-0.004-0.004-0.004-0.006c-0.004-0.017-0.018-0.026-0.024-0.041c-0.005-0.014,0.003-0.028-0.005-0.041  c-0.012-0.021-0.037-0.024-0.053-0.041c-0.019-0.021-0.026-0.049-0.05-0.062c-0.003-0.002-0.003-0.005-0.005-0.006l-0.844-0.5  c-0.014-0.008-0.028-0.001-0.042-0.006c-0.037-0.016-0.069-0.016-0.109-0.016s-0.072-0.001-0.109,0.014  c-0.014,0.006-0.028-0.002-0.041,0.006l-0.438,0.25c0,0,0,0-0.001,0c-0.024,0.015-0.032,0.045-0.052,0.064  c-0.018,0.018-0.044,0.021-0.057,0.043c-0.008,0.012,0,0.027-0.006,0.04c-0.006,0.015-0.021,0.021-0.025,0.036  c0,0.001-0.002,0.002-0.002,0.002l-0.288,1.133l-0.3-1.276l0.358-1.493c0-0.001,0-0.002,0-0.002c0-0.001,0.001-0.001,0.001-0.002  l0.312-1.369l0.015-0.047l0.024-0.047l0.02-0.039l0.039-0.051l2.164,1.229c0.001,0.003,0.003,0.004,0.003,0.007  c0.001,0.012-0.009,0.021-0.006,0.033l0.219,1c0.006,0.025,0.027,0.039,0.039,0.062c0.008,0.017,0.001,0.036,0.013,0.052  l0.719,0.969c0.014,0.019,0.034,0.028,0.051,0.042c0.006,0.006,0.005,0.016,0.012,0.02l1.094,0.812  c0.011,0.009,0.024,0.006,0.036,0.013c0.01,0.005,0.011,0.017,0.021,0.021l1.406,0.625c0.012,0.006,0.024,0.005,0.036,0.008  c0.006,0.002,0.007,0.008,0.013,0.01l1.625,0.406c0.019,0.004,0.035,0.006,0.052,0.007c0.002,0,0.003,0.001,0.004,0.001l1.43,0.084  l0.223,0.297c0,0.001,0,0.001,0.001,0.001l0.151,0.212c0.007,0.01,0.018,0.014,0.025,0.022c0.004,0.005,0.003,0.011,0.007,0.016  l0.188,0.188c0.004,0.003,0.009,0.002,0.013,0.005c0.004,0.004,0.003,0.01,0.007,0.014l0.375,0.312l0.188,0.156  c0.014,0.012,0.031,0.008,0.046,0.017c0.013,0.007,0.015,0.022,0.028,0.028l0.431,0.186l0.024,0.012l0.132,0.105  c0.009,0.007,0.02,0.004,0.029,0.01c0.007,0.006,0.008,0.016,0.016,0.02l0.406,0.219c0.002,0.002,0.004,0.001,0.006,0.002  s0.002,0.002,0.003,0.003l0.062,0.031c0.005,0.003,0.009,0.001,0.014,0.003l0.277,0.127c0.011,0.004,0.022,0.004,0.033,0.007  c0.005,0.001,0.007,0.008,0.012,0.009l0.344,0.094h0.001L51.824,81.727z M38.157,81.404c0,0.035-0.006,0.064,0.005,0.097  l-0.424-0.31l0.488-0.166l-0.079,0.306C38.141,81.357,38.157,81.379,38.157,81.404z M39.104,82.93  c0.011,0.008,0.024,0.006,0.036,0.012c0.008,0.005,0.01,0.016,0.019,0.02l2.635,1.172v0.562l-2.361-1.05l-2.039-1.515v-0.447  L39.104,82.93z M38.905,81.494l0.847-3.253l0.075,0.044l0.897,4.248L38.905,81.494z M41.701,83.436l0.394-0.242  c0.021-0.014,0.023-0.039,0.04-0.056c0.029-0.028,0.05-0.054,0.065-0.091c0.016-0.036,0.019-0.067,0.019-0.107  c0-0.023,0.018-0.044,0.012-0.068l-0.18-0.791l1.022,0.454l-1.046,1.046L41.701,83.436z M47.611,76.521  c-0.001,0.004-0.005,0.007-0.005,0.011v0.042l-8.799-5.104l0.276-0.176l0.3-0.149c0.003-0.001,0.003-0.005,0.005-0.006  c0.004-0.002,0.008-0.001,0.012-0.003l7.619-4.402l0.302-0.151c0.007-0.003,0.007-0.012,0.013-0.015  c0.008-0.005,0.018-0.003,0.025-0.008l0.312-0.219l0.088-0.059c0.002-0.002,0.002-0.005,0.004-0.007  c0.003-0.002,0.007-0.001,0.01-0.003l0.19-0.143l0.007,0.004h0.001c0.001,0,0.001,0.001,0.001,0.001l0.371,0.218L47.607,76.51  C47.607,76.514,47.611,76.517,47.611,76.521z M47.646,77.289l0.025,0.078l0.029,0.524c0.001,0.016,0.016,0.024,0.019,0.04  c0.002,0.013-0.008,0.025-0.003,0.038l0.092,0.274l-5.782-3.348h-0.001c-0.001,0-0.001-0.001-0.001-0.001l-2.531-1.438l-1.215-0.716  c-0.001-0.001-0.002,0-0.003-0.001c0,0,0-0.001-0.001-0.001l-0.362-0.207c0.006-0.006,0.014-0.004,0.02-0.009l0.094-0.094  c0.004-0.004,0.002-0.01,0.006-0.015c0.003-0.003,0.01-0.002,0.013-0.006l0.156-0.188c0.012-0.014,0.006-0.031,0.015-0.047  c0.014-0.021,0.036-0.036,0.043-0.062l0.057-0.198l0.013-0.032L47.646,77.289z M47.688,78.869l-0.704-0.042l-1.575-0.394  l-1.352-0.601l-1.029-0.765l-0.655-0.884l-0.099-0.45L47.688,78.869z M34.403,76.908l1.469-2.039l1.571-1.178l0.672-0.35  l0.783,0.463l-0.01,0.012c-0.011,0.014-0.005,0.031-0.013,0.047c-0.019,0.021-0.038,0.041-0.051,0.064  c-0.004,0.008,0.001,0.017-0.002,0.025c-0.009,0.013-0.022,0.023-0.029,0.037c-0.004,0.008,0.001,0.016-0.002,0.023  s-0.012,0.01-0.014,0.017l-0.031,0.094c-0.002,0.005,0.002,0.009,0.001,0.015c-0.002,0.006-0.009,0.008-0.01,0.014l-0.312,1.375l0,0  l-0.374,1.559c-0.006,0.025,0.011,0.046,0.011,0.07c0,0.023-0.017,0.045-0.011,0.068l0.375,1.594  c0.006,0.025,0.027,0.039,0.038,0.061c0.008,0.016,0.001,0.033,0.012,0.049l0.256,0.348l-0.318,1.053l-1.417,0.481  c-0.023,0.009-0.032,0.033-0.053,0.046c-0.026,0.017-0.052,0.025-0.072,0.049c-0.006,0.006-0.016,0.006-0.021,0.013  c-0.006,0.008-0.002,0.019-0.006,0.026c-0.018,0.027-0.019,0.056-0.025,0.088c-0.006,0.022-0.026,0.038-0.026,0.062v1.188  c0,0.008,0.008,0.014,0.009,0.021c0.003,0.039,0.025,0.068,0.043,0.104s0.027,0.07,0.058,0.096c0.006,0.006,0.005,0.016,0.012,0.02  l2.188,1.625c0.011,0.009,0.024,0.006,0.036,0.013c0.01,0.005,0.011,0.017,0.021,0.021l2.812,1.25  c0.04,0.018,0.081,0.027,0.122,0.027c0.071,0,0.135-0.033,0.188-0.079c0.016-0.013,0.024-0.027,0.038-0.044  c0.016-0.02,0.037-0.031,0.048-0.056c0.01-0.021-0.003-0.042,0.002-0.064c0.004-0.021,0.023-0.035,0.023-0.058v-1.095l1.294-1.294  l2.369,0.556c0.015,0.003,0.029,0.004,0.044,0.005c0.001,0,0.002,0.002,0.004,0.002l2.719,0.188  c0.007,0.001,0.014,0.001,0.021,0.001s0.014,0,0.021-0.001l2.75-0.188c0.002,0,0.003-0.002,0.004-0.002  c0.015-0.001,0.029-0.002,0.044-0.005l2.531-0.594c0.006-0.001,0.008-0.009,0.014-0.011c0.016-0.004,0.03-0.002,0.045-0.01  l1.344-0.625c0.005-0.002,0.006-0.008,0.011-0.011c0.007-0.004,0.015-0.002,0.021-0.007l2.25-1.406  c0.008-0.004,0.008-0.015,0.015-0.02c0.008-0.006,0.019-0.004,0.025-0.01l3.352-2.979l0.726-0.423  c0.001-0.002,0.001-0.003,0.003-0.004c0.001-0.001,0.003,0,0.005-0.002l0.5-0.312c0.007-0.004,0.007-0.014,0.014-0.019  s0.017-0.003,0.023-0.009l0.469-0.406c0.003-0.003,0.002-0.008,0.005-0.01c0.003-0.004,0.008-0.002,0.011-0.005l0.092-0.092  l0.067-0.014c0.005-0.001,0.008-0.007,0.013-0.009c0.016-0.004,0.031-0.003,0.047-0.01l0.219-0.094c0.002,0,0.003-0.004,0.005-0.004  c0.003-0.002,0.007-0.001,0.011-0.003l0.175-0.087l0.234-0.088c0.004-0.002,0.004-0.006,0.008-0.008  c0.007-0.003,0.014-0.002,0.021-0.005l0.14-0.069l0.217,0.145c0.02,0.012,0.042,0.011,0.062,0.019  c0.012,0.005,0.017,0.019,0.03,0.022l0.146,0.037l0.03,0.039c0.003,0.004,0.008,0.006,0.012,0.01c0.001,0.002,0,0.006,0.002,0.008  l0.837,0.963l-5.699,5.039l-0.077,0.051c-0.007,0.005-0.006,0.014-0.013,0.02c-0.007,0.005-0.016,0.002-0.022,0.008  c-0.025,0.023-0.025,0.058-0.041,0.086c-0.02,0.035-0.043,0.062-0.048,0.101s0.012,0.071,0.021,0.108  c0.008,0.031-0.001,0.065,0.019,0.094c0.006,0.01,0.016,0.012,0.022,0.02c0.003,0.005,0.001,0.012,0.005,0.016l1.197,1.327  l-2.243,1.396l-2.078,0.947l-3.666,0.862l-3.925,0.278l-3.89-0.277l-3.609-0.864l-3.099-1.381l-2.373-1.765l-1.47-2.068  l-0.502-2.156L34.403,76.908z M63.841,74.57c-0.002,0.013-0.014,0.02-0.015,0.033l-0.031,0.438  c-0.001,0.009,0.008,0.015,0.008,0.023c0,0.01-0.009,0.016-0.008,0.025l0.005,0.051l-0.587-0.32l-0.147-0.148l-0.084-0.187  l-0.024-0.271l0.027-0.35l0.107-0.377l0.194-0.361c0.001,0,0.001,0,0.001-0.001l0.232-0.378l0.268-0.268l0.308-0.224l0.24-0.12  l0.193-0.02l0.189,0.063l0.568,0.345l-0.022,0.009c-0.013,0.005-0.016,0.021-0.027,0.026s-0.026,0.001-0.038,0.01l-0.344,0.25  c-0.008,0.005-0.007,0.016-0.013,0.021c-0.007,0.005-0.017,0.003-0.022,0.009l-0.312,0.312c-0.007,0.007-0.004,0.018-0.011,0.025  s-0.019,0.007-0.024,0.016L64.19,73.61c-0.007,0.01-0.001,0.022-0.007,0.032c-0.005,0.009-0.018,0.011-0.021,0.021l-0.188,0.438  c-0.002,0.005,0.002,0.011,0,0.016c-0.002,0.007-0.01,0.008-0.012,0.015l-0.125,0.406C63.834,74.549,63.844,74.559,63.841,74.57z   M65.857,86.402c0,0.002-0.001,0.002-0.001,0.004v0.158l-0.025,0.127c0,0.002,0.001,0.003,0.001,0.004  c0,0.002-0.003,0.004-0.003,0.006l-0.022,0.132l-0.063,0.106c-0.005,0.008,0,0.018-0.004,0.025s-0.015,0.01-0.018,0.018  l-0.046,0.113l-0.098,0.123l-0.125,0.156c-0.005,0.006-0.002,0.015-0.006,0.021c-0.004,0.006-0.013,0.006-0.017,0.012l-0.066,0.111  l-0.142,0.117l-0.17,0.113l-0.188,0.125l-0.18,0.12l-5.134,2.987l-3.117,1.389l-3.669,0.863l-3.922,0.309l-3.887-0.309l-3.612-0.864  l-3.099-1.381l-2.373-1.765l-1.47-2.068l-0.51-2.16v-3.461l1.519,2.139c0.014,0.02,0.035,0.03,0.053,0.045  c0.007,0.006,0.006,0.017,0.013,0.021l2.438,1.812c0.011,0.009,0.024,0.006,0.036,0.013c0.01,0.005,0.011,0.017,0.021,0.021  l3.156,1.406c0.013,0.006,0.025,0.005,0.038,0.009c0.006,0.002,0.008,0.009,0.014,0.01l3.656,0.875  c0.016,0.003,0.03,0.004,0.045,0.005c0.002,0,0.002,0.002,0.004,0.002l3.938,0.281c0.008,0.001,0.015,0.001,0.021,0.001  s0.014,0,0.021-0.001l3.969-0.281c0.002,0,0.003-0.002,0.004-0.002c0.015-0.001,0.029-0.002,0.043-0.005l3.719-0.875  c0.006-0.001,0.008-0.008,0.014-0.01c0.014-0.004,0.028-0.003,0.042-0.009l2.125-0.969c0.005-0.003,0.006-0.01,0.011-0.012  c0.008-0.004,0.017-0.002,0.023-0.007l2.13-1.324l0.163,1.907c0.002,0.025,0.023,0.039,0.03,0.062  c0.007,0.021-0.003,0.043,0.009,0.062s0.03,0.029,0.045,0.045c0.012,0.013,0.021,0.023,0.036,0.035  c0.053,0.041,0.112,0.07,0.179,0.07c0.001,0,0.001-0.001,0.002-0.001c0.008,0,0.016,0,0.023-0.001  c0.009-0.001,0.014-0.01,0.022-0.012c0.035-0.006,0.07-0.009,0.103-0.027l3.426-1.994l0.183-0.091  c0.011-0.005,0.012-0.019,0.021-0.024c0.012-0.008,0.026-0.005,0.037-0.014l0.179-0.148l0.17-0.113  c0.005-0.004,0.004-0.01,0.009-0.014s0.013-0.002,0.018-0.006l0.188-0.156c0.006-0.005,0.005-0.014,0.01-0.02  c0.013-0.012,0.027-0.018,0.038-0.031l0.074-0.098l-0.052,2.286C65.856,86.4,65.857,86.401,65.857,86.402z M65.861,80.676  c0,0.004-0.005,0.007-0.005,0.012v2.062v0.127l-0.025,0.127c0,0.002,0.001,0.003,0.001,0.004c0,0.002-0.003,0.004-0.003,0.006  l-0.022,0.132l-0.002,0.004l-0.003-0.004l-0.018-0.053c-0.01-0.03-0.04-0.043-0.059-0.067c-0.018-0.025-0.02-0.059-0.046-0.078  l-0.125-0.094c-0.005-0.004-0.011-0.001-0.016-0.004c-0.005-0.004-0.005-0.01-0.01-0.014l-0.156-0.094  c-0.017-0.01-0.035-0.001-0.053-0.008c-0.017-0.006-0.024-0.024-0.043-0.028l-0.156-0.031c-0.011-0.003-0.02,0.007-0.03,0.006  s-0.018-0.012-0.028-0.012h-0.188h-0.156c-0.009,0-0.015,0.009-0.023,0.01c-0.01,0.001-0.016-0.007-0.026-0.006l-0.188,0.031  c-0.025,0.005-0.038,0.028-0.062,0.038c-0.022,0.01-0.048,0.002-0.068,0.018l-0.125,0.094l-0.125,0.094  c-0.016,0.012-0.015,0.031-0.026,0.045c-0.013,0.014-0.033,0.014-0.044,0.029l-0.062,0.094l-0.062,0.094  c-0.004,0.006,0,0.013-0.004,0.02c-0.004,0.006-0.012,0.006-0.015,0.012c-0.012,0.023,0,0.047-0.005,0.071  c-0.006,0.022-0.026,0.038-0.026,0.063v0.062c0,0.029,0.022,0.043,0.03,0.068c0.008,0.033,0,0.068,0.02,0.098l0.062,0.094  l0.062,0.094c0.015,0.022,0.037,0.034,0.057,0.051c0.007,0.007,0.006,0.018,0.014,0.023l0.125,0.094  c0.009,0.007,0.021,0.004,0.03,0.01c0.007,0.005,0.008,0.015,0.016,0.019l0.125,0.062c0.021,0.011,0.043,0.011,0.064,0.016  c0.008,0.002,0.012,0.011,0.02,0.012l0.188,0.031c0.001,0,0.001,0,0.002,0l0.146,0.029c0.02,0.005,0.039,0.007,0.059,0.007  c0.001,0,0.001-0.001,0.002-0.001c0.015,0,0.031-0.001,0.048-0.004l0.04-0.007l-0.1,0.084l-0.155,0.077  c-0.003,0.002-0.004,0.006-0.007,0.008s-0.007-0.001-0.01,0.001l-3.028,1.763L61.53,84.5l4.327-3.841v0.003  C65.857,80.668,65.861,80.67,65.861,80.676z M69.138,80.615l-2.619,2.34v-2.268v-0.75c0-0.037-0.026-0.062-0.039-0.094  c-0.013-0.035-0.011-0.074-0.035-0.102c-0.001-0.001,0-0.003-0.001-0.004c-0.002-0.003-0.007-0.002-0.009-0.004  c-0.025-0.027-0.063-0.031-0.097-0.047c-0.032-0.016-0.056-0.046-0.094-0.049c-0.002,0-0.004,0-0.006,0s-0.004,0.001-0.006,0.001  c-0.003-0.001-0.006,0.001-0.009,0c-0.002,0-0.003-0.002-0.005-0.002c-0.003,0-0.004,0.003-0.007,0.003  c-0.091-0.004-0.165,0.032-0.216,0.094l-4.645,4.121l-1.135-1.258l5.296-4.683v0.835v0.156V79c0,0.004,0.004,0.006,0.004,0.011  c0.001,0.003-0.003,0.006-0.003,0.01c0.003,0.048,0.034,0.081,0.057,0.118c0.015,0.025,0.016,0.057,0.036,0.076  c0.054,0.052,0.126,0.085,0.206,0.085c0.007,0,0.014,0,0.021-0.001l3.305-0.228V80.615z M65.447,76.371l0.775,0.449l-0.138,0.363  c-0.003-0.01-0.008-0.018-0.012-0.027c-0.012-0.035-0.009-0.074-0.034-0.104L65.447,76.371z M69.547,76.771l-0.626,1.602  l-2.722,0.203l0.607-1.604L69.547,76.771z M68.694,76.041C68.695,76.041,68.695,76.042,68.694,76.041l0.298,0.17l-2.328,0.17  l-0.737-0.426l2.314-0.18l0.45,0.265C68.692,76.041,68.693,76.041,68.694,76.041z M65.885,67.416  c0.003-0.013-0.007-0.023-0.006-0.037c0.002-0.014,0.015-0.021,0.015-0.035v-2.178l0.538,0.26c0.011,0.006,0.023,0.004,0.035,0.009  l0.819,0.585c0.001,0.002,0.001,0.004,0.002,0.005c0.003,0.003,0.007,0.001,0.01,0.004c0.002,0.002,0.001,0.005,0.002,0.007  l0.587,0.709c0.002,0.005-0.001,0.011,0.001,0.016c0.007,0.014,0.021,0.02,0.029,0.031l0.27,0.748  c0.005,0.013,0.017,0.018,0.022,0.029c0.001,0.002,0,0.002,0,0.003l0.335,1.37v6.314l-0.079-0.046  c-0.03-0.018-0.063-0.007-0.096-0.013c-0.028-0.008-0.051-0.029-0.08-0.027l-1.993,0.154l0.226-0.301  c0.007-0.008,0.002-0.02,0.008-0.028c0.008-0.013,0.021-0.019,0.027-0.033l0.188-0.438c0.003-0.006-0.002-0.012,0-0.018  c0.003-0.007,0.011-0.011,0.013-0.019l0.125-0.438c0.003-0.01-0.005-0.02-0.003-0.029c0.002-0.012,0.013-0.018,0.014-0.029  l0.031-0.406c0.001-0.01-0.008-0.016-0.008-0.025s0.009-0.016,0.008-0.025l-0.031-0.344c-0.002-0.018-0.017-0.026-0.021-0.042  c-0.003-0.015,0.007-0.028,0.001-0.042l-0.125-0.312c-0.01-0.024-0.036-0.031-0.051-0.052c-0.015-0.021-0.014-0.05-0.035-0.067  l-0.188-0.156c-0.009-0.007-0.02-0.003-0.028-0.009s-0.01-0.018-0.019-0.022l-0.383-0.213l0.035-0.268  c0.001-0.008-0.006-0.013-0.006-0.021c0.001-0.007,0.008-0.011,0.008-0.019v-0.188V71.25c0-0.004-0.005-0.008-0.005-0.012  s0.004-0.008,0.004-0.012l-0.277-3.482L65.885,67.416z M65.759,72.981l0.207-0.021l0.166,0.056l0.087,0.072l0.08,0.2l0.025,0.277  l-0.027,0.35l-0.111,0.39l-0.164,0.385l-0.252,0.335l-0.28,0.28l-0.179,0.149l-0.094,0.07l-0.155,0.077l-0.088,0.035h-0.13h-0.118  l-0.136-0.034l-0.087-0.088l-0.084-0.187l-0.024-0.272l0.026-0.373l0.113-0.367l0.165-0.386l0.254-0.366l0.271-0.271l0.298-0.217  L65.759,72.981z M60.015,54.711l0.749,0.172l0.267,0.09c0.003,0,0.007,0,0.01,0.001c0.001,0.001,0.002,0.002,0.003,0.003  l0.181,0.051l0.263,0.158l1.04,0.826l0.255,0.227l0.191,0.246l0,0l0.208,0.297l0.066,0.126c-0.019,0.085-0.01,0.173,0.048,0.245  l0.204,0.264l0.159,0.275l0.17,0.323c0.003,0.006,0.01,0.009,0.013,0.014c0.003,0.004,0,0.009,0.003,0.013l0.115,0.174l0.179,0.357  l0.11,0.221l0.052,0.205l0.312,1.5c0.001,0.006,0.006,0.008,0.007,0.012s-0.002,0.007-0.001,0.01l0.054,0.189l0.186,2.439l0,0  c0,0,0,0,0,0.001l0.125,1.531v0.001l0.219,3.059c0,0,0,0,0,0.001c0.001,0.001,0,0.001,0,0.001l0.28,3.52v0.52v0.162l-0.482-0.293  c-0.011-0.007-0.023-0.001-0.034-0.006c-0.011-0.006-0.015-0.02-0.026-0.023l-0.281-0.094c-0.021-0.007-0.042,0.008-0.063,0.005  c-0.023-0.003-0.037-0.02-0.062-0.019l-0.312,0.031c-0.02,0.002-0.03,0.021-0.049,0.026s-0.037-0.005-0.055,0.004l-0.312,0.156  c-0.009,0.005-0.009,0.015-0.017,0.02c-0.009,0.005-0.019,0.001-0.026,0.007l-0.344,0.25c-0.008,0.005-0.007,0.016-0.013,0.021  c-0.007,0.005-0.017,0.003-0.022,0.009l-0.312,0.312c-0.009,0.009-0.006,0.022-0.014,0.032c-0.008,0.011-0.023,0.011-0.03,0.022  l-0.25,0.406c-0.002,0.003,0,0.007-0.002,0.011c-0.001,0.002-0.005,0.002-0.006,0.004l-0.219,0.406  c-0.006,0.011,0.001,0.022-0.004,0.033c-0.004,0.012-0.018,0.016-0.021,0.027l-0.125,0.438c-0.003,0.011,0.006,0.02,0.004,0.031  c-0.002,0.011-0.014,0.017-0.015,0.027l-0.031,0.406c-0.001,0.01,0.008,0.016,0.008,0.025s-0.009,0.016-0.008,0.025l0.031,0.344  c0.002,0.019,0.019,0.029,0.023,0.047c0.004,0.016-0.006,0.031,0.001,0.048l0.125,0.281c0.011,0.024,0.033,0.037,0.049,0.057  c0.008,0.01,0.005,0.024,0.014,0.033l0.219,0.219c0.011,0.011,0.028,0.008,0.04,0.017c0.013,0.01,0.015,0.027,0.028,0.035  l0.515,0.279c-0.002,0.002-0.004,0-0.005,0.001l-0.179,0.089l-0.185,0.08L62.91,75.8c-0.007,0.001-0.01,0.009-0.016,0.011  c-0.008,0.002-0.014-0.004-0.021-0.002l-0.063,0.021l-0.25,0.027c-0.002,0-0.003,0.003-0.005,0.003  c-0.001,0.001-0.002-0.001-0.004-0.001l-0.212,0.03l-0.274,0.027l-0.206-0.022c-0.006-0.001-0.01-0.007-0.016-0.007h-0.062h-0.229  l-0.2-0.024l-0.185-0.07l-0.133-0.088l-0.132-0.132l-7.367-7.648l-0.166-0.193l-0.136-0.218l-0.116-0.261  c0-0.001-0.001-0.001-0.001-0.001l-0.11-0.275l-0.057-0.285c-0.001-0.004-0.005-0.006-0.006-0.01s0.002-0.007,0.001-0.011  l-0.083-0.304v-0.336v-0.406v-0.344l0.087-0.406c0.001-0.002-0.002-0.005-0.002-0.008c0.001-0.004,0.005-0.006,0.006-0.01  l0.062-0.406l0,0l0.09-0.42c0.008-0.035-0.014-0.064-0.018-0.099c-0.006-0.039-0.001-0.077-0.021-0.111s-0.055-0.049-0.086-0.073  c-0.027-0.021-0.042-0.054-0.077-0.064c-0.006-0.002-0.011,0.002-0.016,0.001c-0.006-0.001-0.008-0.008-0.014-0.009  c-0.036-0.009-0.067,0.013-0.103,0.019c-0.038,0.006-0.074,0.001-0.106,0.02c-0.033,0.019-0.047,0.054-0.07,0.083  c-0.022,0.027-0.057,0.043-0.068,0.08l-0.312,0.969c-0.002,0.007,0.004,0.014,0.002,0.021s-0.012,0.012-0.013,0.02l-0.344,2  c-0.001,0.006,0.004,0.01,0.004,0.016c-0.001,0.005-0.007,0.008-0.007,0.014L51.014,78.51c0,0.004,0.004,0.006,0.004,0.01  c0,0.005-0.005,0.008-0.005,0.012v0.594c0,0.003,0.003,0.005,0.003,0.008c0,0.004-0.003,0.006-0.003,0.01l0.031,0.531  c0.001,0.011,0.011,0.018,0.013,0.027s-0.006,0.018-0.004,0.027l0.125,0.5c0.003,0.012,0.014,0.017,0.018,0.027  c0.003,0.009-0.003,0.018,0.001,0.025l0.188,0.406c0.007,0.016,0.022,0.023,0.031,0.036c0.006,0.009,0.002,0.021,0.009,0.028  l0.251,0.308l-0.124-0.036c0,0-0.001,0.001-0.002,0c0,0,0,0-0.001,0l-0.323-0.088l-0.305-0.14l-0.379-0.204l-0.13-0.104l-0.14-0.116  l-0.034-0.069c-0.005-0.01-0.019-0.012-0.024-0.021s-0.001-0.021-0.008-0.028L50.008,80l-0.191-0.41l-0.113-0.48l-0.06-0.568v-0.627  l0.841-11.654l0.309-2.031l0.734-2.08l1.012-2.055l1.349-1.839l1.495-1.526l1.61-1.154l1.556-0.688L60.015,54.711z M67.368,31.978  C67.368,31.979,67.368,31.979,67.368,31.978l-0.153,0.492l-4.146,12.748l-5.093,8.346l-1.138,0.139  c-0.007,0.001-0.011,0.009-0.018,0.01s-0.013-0.005-0.02-0.003l-0.25,0.062c-0.01,0.002-0.013,0.014-0.022,0.017  c-0.009,0.003-0.019-0.003-0.027,0.001l-1.516,0.681l-0.175,0.058c-0.017,0.006-0.021,0.024-0.037,0.032  c-0.015,0.008-0.033,0.001-0.047,0.013l-1.469,1.094l0,0h-0.001l-0.125,0.094c-0.007,0.005-0.006,0.015-0.012,0.02  c-0.006,0.006-0.015,0.003-0.021,0.009l-0.592,0.592l-0.067,0.014c-0.01,0.002-0.015,0.013-0.024,0.017  c-0.01,0.002-0.019-0.005-0.028-0.001l-0.625,0.25c-0.01,0.004-0.012,0.017-0.021,0.021c-0.01,0.006-0.021,0-0.03,0.006  l-0.625,0.406c-0.01,0.007-0.01,0.02-0.019,0.027s-0.021,0.004-0.03,0.013l-0.594,0.594c-0.005,0.005-0.003,0.013-0.007,0.017  c-0.005,0.006-0.013,0.005-0.018,0.01l-0.562,0.719c-0.008,0.01-0.003,0.023-0.009,0.033c-0.007,0.01-0.021,0.012-0.025,0.022  l-0.375,0.781c-0.003,0.006,0.001,0.013-0.001,0.019s-0.01,0.008-0.012,0.014l-0.281,0.812c-0.005,0.014,0.005,0.025,0.002,0.039  s-0.017,0.021-0.018,0.035l-0.062,0.781c-0.001,0.006,0.006,0.012,0.006,0.018c0,0.008-0.007,0.012-0.007,0.02l0.031,0.688  c0.001,0.025,0.022,0.041,0.029,0.064l-0.326,0.949c-0.003,0.01,0.004,0.018,0.002,0.027c-0.003,0.008-0.012,0.013-0.014,0.021  l-0.233,1.422l-0.216-0.228l-0.366-0.875l-0.117-1.139l0.209-1.282l0.423-1.359l0.672-1.344l15.396-25.381l0.739,0.485  c0.002,0.001,0.005,0.001,0.007,0.002s0.002,0.003,0.003,0.004c0.049,0.029,0.103,0.043,0.155,0.043c0.05,0,0.099-0.013,0.143-0.037  c0.015-0.008,0.023-0.023,0.036-0.033c0.026-0.02,0.054-0.037,0.072-0.065c0.001-0.001,0-0.003,0.001-0.004  c0.001-0.002,0.004-0.003,0.005-0.005l1.463-2.419l0.493,0.329L67.368,31.978z M68.215,30.558c-0.009-0.007-0.008-0.02-0.018-0.026  l-0.938-0.625c-0.002-0.001-0.004,0-0.006-0.001c-0.003-0.001-0.003-0.004-0.005-0.006c0,0,0,0-0.001,0v0l-0.522-0.313l1.326-2.183  l0.628,1.063c0.003,0.005,0.008,0.006,0.012,0.011c0.002,0.003,0,0.007,0.002,0.01l0.312,0.438c0.029,0.042,0.067,0.073,0.11,0.094  v0l0.021,0.011L68.215,30.558z M74.735,25.593l-0.23,0.662l-0.335,0.67l-0.374,0.634l-0.52,0.49l-0.521,0.376l-0.491,0.219  l-0.401,0.05l-0.372-0.093l-0.238-0.217l-0.148-0.373l-0.082-0.516l0.085-0.625l0.176-0.674l0.316-0.661l0.474-0.592l0.475-0.534  l0.511-0.369l0.483-0.215l0.463-0.026l0.289,0.067l0.249,0.226l0.196,0.369l0.054,0.509L74.735,25.593z M75.294,23.594v0.594v0.043  l-0.248-0.465c-0.009-0.016-0.028-0.019-0.04-0.033c-0.011-0.015-0.008-0.035-0.022-0.048l-0.344-0.312  c-0.012-0.01-0.028-0.006-0.041-0.015c-0.012-0.008-0.014-0.025-0.027-0.032l-0.188-0.094c-0.01-0.005-0.02,0.001-0.029-0.002  c-0.01-0.004-0.013-0.015-0.022-0.018l-0.438-0.125c-0.021-0.006-0.039,0.008-0.06,0.007c-0.021-0.002-0.036-0.019-0.058-0.016  l-0.531,0.062c-0.014,0.001-0.021,0.016-0.034,0.019c-0.013,0.003-0.026-0.006-0.039-0.001l-0.562,0.219  c-0.014,0.005-0.017,0.021-0.028,0.027c-0.013,0.006-0.027,0.001-0.039,0.009l-0.562,0.406c-0.009,0.006-0.008,0.018-0.016,0.025  s-0.02,0.004-0.026,0.012l-0.531,0.562c-0.005,0.006-0.003,0.014-0.008,0.02s-0.014,0.005-0.019,0.012l-0.469,0.656  c-0.006,0.008-0.001,0.019-0.006,0.027c-0.006,0.008-0.017,0.009-0.021,0.018l-0.344,0.719c-0.005,0.01,0.002,0.02-0.002,0.03  c-0.003,0.01-0.015,0.014-0.018,0.024l-0.188,0.719c-0.002,0.006,0.004,0.011,0.002,0.018c-0.001,0.006-0.008,0.009-0.009,0.016  l-0.094,0.656c-0.002,0.017,0.012,0.029,0.012,0.045s-0.014,0.028-0.011,0.044l0.094,0.594c0.002,0.013,0.015,0.02,0.018,0.032  c0.003,0.011-0.004,0.021,0,0.032l0.188,0.469c0.012,0.03,0.038,0.047,0.058,0.071c0.01,0.012,0.007,0.029,0.019,0.04l0.344,0.312  c0.007,0.006,0.017,0.004,0.023,0.009c0.007,0.005,0.006,0.014,0.013,0.018l0.188,0.125c0.02,0.013,0.042,0.011,0.062,0.019  c0.012,0.005,0.017,0.019,0.03,0.022l0.286,0.071l-0.119,0.025h-0.459l-0.396-0.105l-0.35-0.2l-0.263-0.342l-3.524-5.915  l8.849-5.119V23.594z M79.769,19.689l-0.048,0.167l-0.073,0.146l-0.128,0.179l-0.123,0.123l-0.113,0.09l-0.06,0.024h-0.069  l-0.025-0.005l-0.032-0.055l-0.012-0.055l0.019-0.13l0.078-0.182c0.002-0.004-0.001-0.008,0-0.012  c0.002-0.005,0.007-0.007,0.009-0.012l0.048-0.144l0.117-0.164l0.123-0.123l0.113-0.09l0.06-0.024h0.069l0.042,0.008l0.012,0.028  l0.016,0.078L79.769,19.689z M80.513,18.781v0.229l-0.024,0.198l-0.082,0.218c-0.001,0.002,0.001,0.005,0,0.007  c0,0.002-0.002,0.002-0.003,0.004l-0.021,0.062c-0.001-0.009,0.007-0.017,0.005-0.026l-0.031-0.156  c-0.002-0.01-0.013-0.014-0.016-0.023c-0.003-0.01,0.004-0.02,0-0.029l-0.062-0.156c-0.012-0.029-0.042-0.04-0.062-0.063  c-0.02-0.024-0.023-0.057-0.051-0.075l-0.094-0.062c-0.018-0.012-0.039-0.004-0.058-0.011c-0.02-0.008-0.028-0.029-0.05-0.033  l-0.156-0.031c-0.011-0.002-0.02,0.007-0.03,0.006s-0.018-0.012-0.028-0.012h-0.156c-0.021,0-0.034,0.018-0.054,0.022  c-0.02,0.003-0.038-0.009-0.058-0.001l-0.156,0.062c-0.016,0.006-0.019,0.023-0.032,0.031s-0.031,0.002-0.044,0.013l-0.156,0.125  c-0.005,0.004-0.004,0.012-0.009,0.016c-0.005,0.004-0.012,0.002-0.016,0.006l-0.156,0.156c-0.007,0.006-0.004,0.017-0.01,0.023  c-0.006,0.007-0.017,0.006-0.022,0.014l-0.156,0.219c-0.01,0.014-0.004,0.031-0.011,0.045c-0.007,0.014-0.024,0.019-0.029,0.034  l-0.058,0.174l-0.09,0.208c-0.006,0.014,0.003,0.027-0.001,0.041s-0.019,0.021-0.021,0.035l-0.031,0.219  c-0.003,0.019,0.012,0.032,0.013,0.05s-0.014,0.032-0.01,0.051l0.031,0.156c0.004,0.021,0.022,0.032,0.03,0.05  c0.006,0.015-0.002,0.031,0.007,0.045l0.094,0.156c0.009,0.015,0.024,0.021,0.035,0.034c0.006,0.007,0.003,0.017,0.01,0.023  l0.062,0.062c0.022,0.022,0.054,0.02,0.08,0.033c0.026,0.015,0.042,0.042,0.073,0.049l0.156,0.031  c0.02,0.004,0.039,0.006,0.059,0.006l0.001,0h0.153c0.001,0,0.001,0,0.002,0c0.037,0,0.075-0.007,0.111-0.022l0.031-0.013  L79.263,21.1l-0.208,0.148l-3.161,1.826v-3.985c0.003,0.004,0.008,0.006,0.012,0.01c0.01,0.012,0.02,0.019,0.032,0.029  c0.002,0.001,0.003,0.003,0.006,0.005c0.014,0.011,0.023,0.027,0.039,0.035c0.044,0.024,0.093,0.037,0.143,0.037  c0.052,0,0.104-0.013,0.15-0.041l4.237-2.458V18.781z M76.413,16.535c-0.002-0.026-0.011-0.045-0.02-0.07  c-0.006-0.015,0.003-0.031-0.005-0.045c-0.008-0.014-0.025-0.016-0.034-0.028c-0.016-0.021-0.026-0.037-0.046-0.053  c-0.009-0.007-0.008-0.019-0.018-0.025l-0.054-0.036v-1.238l0.082,0.147l0.355,1.008l0.116,0.927l-0.11,0.745l-0.256,0.426v-1.73  C76.425,16.552,76.414,16.545,76.413,16.535z M80.774,11.448c0.013-0.007,0.014-0.024,0.025-0.033  c0.031-0.024,0.047-0.053,0.066-0.087c0.008-0.012,0.021-0.021,0.026-0.034l0.49,0.925l0.386,1.04l0.116,0.896l-0.11,0.741  l-0.339,0.548l-0.496,0.331l-0.272,0.151c-0.001,0-0.001,0.002-0.002,0.002s-0.002,0-0.003,0l-3.378,1.959l0.106-0.718  c0.002-0.015-0.01-0.026-0.01-0.041s0.013-0.025,0.011-0.041l-0.125-1c-0.002-0.012-0.014-0.018-0.017-0.03  c-0.002-0.011,0.006-0.021,0.002-0.033l-0.375-1.062c-0.003-0.009-0.014-0.011-0.018-0.02c-0.004-0.009,0.002-0.018-0.003-0.026  l-0.516-0.928L80.774,11.448z M59.827,15.618l0.413-0.524l0.643-0.467l14.595-8.42l0.134-0.054c0.006-0.002,0.007-0.01,0.013-0.013  c0.01-0.004,0.021-0.003,0.03-0.008l0.107-0.064l0.132-0.022l0.164-0.027h0.166l0.164,0.027l0.188,0.031  c0.004,0,0.007,0,0.011,0.001c0.001,0,0.001,0.001,0.002,0.001l0.199,0.025l0.142,0.071c0.004,0.002,0.008,0.001,0.011,0.002  c0.002,0.001,0.003,0.004,0.005,0.005l0.219,0.094c0.003,0.001,0.007,0,0.01,0.002c0.001,0,0.001,0.002,0.003,0.003l0.234,0.088  l0.223,0.111l0.424,0.272c0.006,0.004,0.013,0.002,0.02,0.005c0.004,0.003,0.004,0.008,0.009,0.011l0.218,0.109l0.161,0.134  c0.003,0.002,0.006,0.001,0.009,0.003c0.002,0.002,0.002,0.005,0.004,0.007l0.25,0.188c0.001,0,0.002,0,0.003,0.001  c0.001,0.001,0.001,0.002,0.002,0.003l0.202,0.144l0.198,0.199l0.219,0.219l0.177,0.177l0.195,0.222l0.11,0.194  c0.007,0.012,0.02,0.017,0.028,0.028c0.005,0.006,0.002,0.015,0.007,0.021l0.2,0.229l0.137,0.219l-14.341,8.273l-0.876,0.393  l-0.924,0.268l-0.985,0.12l-1.015-0.03l-0.879-0.176l-0.722-0.318l-0.514-0.378l-0.252-0.452l-0.049-0.465L59.827,15.618z   M58.769,19.475l0.592-2.283l0.096,0.172c0.018,0.031,0.045,0.049,0.069,0.071c0.008,0.007,0.007,0.019,0.016,0.025l0.594,0.438  c0.011,0.008,0.025,0.006,0.037,0.012c0.009,0.005,0.01,0.017,0.02,0.021l0.781,0.344c0.017,0.007,0.032,0.006,0.049,0.01  c0.006,0.001,0.008,0.008,0.014,0.009l0.938,0.188c0.017,0.004,0.032,0.005,0.049,0.005c0,0,0,0,0.001,0h0.006  c0.001,0,0.002,0,0.003,0c0,0,0,0,0.001,0l1.053,0.031c0.003,0,0.006,0,0.009,0c0.012,0,0.023,0,0.036-0.002l1.031-0.125  c0.003,0,0.004-0.003,0.007-0.004c0.014-0.002,0.027-0.002,0.041-0.006l0.969-0.281c0.004-0.001,0.006-0.006,0.01-0.008  c0.01-0.003,0.02-0.002,0.029-0.006l0.906-0.406c0.004-0.002,0.005-0.007,0.009-0.009c0.006-0.003,0.013-0.001,0.019-0.005  l14.175-8.178v0.918v0.607l-4.537,2.601c-0.013,0.007-0.014,0.024-0.025,0.033c-0.029,0.022-0.044,0.048-0.063,0.08  c-0.015,0.022-0.038,0.037-0.046,0.062c-0.005,0.017,0.002,0.032,0,0.049c-0.002,0.014-0.016,0.022-0.016,0.037v2.39l-0.602,0.351  c0,0,0,0,0,0l-9.529,5.467c0,0,0,0-0.001,0.001l-0.338,0.193l-0.816-0.163l-0.977-0.274l-1.088-0.374l-0.443-0.177l-0.462-0.216  c-0.01-0.007-0.01-0.02-0.021-0.025l-0.738-0.4l-0.156-0.094c-0.002-0.001-0.004,0-0.006-0.001s-0.002-0.003-0.004-0.004  l-0.625-0.344c-0.002-0.001-0.004,0-0.006,0c-0.003-0.001-0.003-0.004-0.005-0.005l-0.111-0.056l-0.488-0.305  c-0.015-0.009-0.032-0.001-0.047-0.008c-0.016-0.007-0.022-0.024-0.039-0.029l-0.06-0.015l-0.292-0.239  c-0.005-0.004-0.011-0.001-0.016-0.005V19.475z M58.35,20.009c0.035,0.028,0.073,0.046,0.116,0.056l0.281,0.23  c0.021,0.018,0.049,0.015,0.073,0.026c0.018,0.008,0.024,0.028,0.044,0.033l0.079,0.02l0.46,0.287  c0.006,0.003,0.012,0.002,0.018,0.005c0.004,0.002,0.004,0.007,0.008,0.009l0.124,0.062l0.605,0.333l0.156,0.094  c0.003,0.001,0.006,0.001,0.009,0.002c0.001,0.001,0.001,0.003,0.003,0.004l0.712,0.386c0,0,0.001,0,0.001,0l0.037,0.02  c0.004,0.002,0.01,0.001,0.014,0.003c0.015,0.01,0.018,0.029,0.033,0.036l0.469,0.219c0.004,0.002,0.008,0.001,0.012,0.002  c0.002,0.001,0.002,0.003,0.004,0.004l0.469,0.188c0.003,0.001,0.007,0.001,0.01,0.002c0.002,0,0.002,0.003,0.004,0.003l1.094,0.375  c0.004,0.001,0.009,0.001,0.014,0.002c0.001,0,0.002,0.002,0.003,0.002l1,0.281c0.006,0.002,0.013,0.001,0.019,0.002  c0.002,0,0.002,0.002,0.004,0.003l0.938,0.188c0.02,0.004,0.039,0.006,0.059,0.006c0.051,0,0.102-0.013,0.148-0.04l0.146-0.083  l0.031,0.072v0.077l-0.785,0.445c-0.001,0-0.001,0.001-0.002,0.002s-0.002,0-0.003,0l-1.438,0.844  c-0.024,0.014-0.028,0.043-0.047,0.062c-0.003,0.003-0.007,0.004-0.01,0.007l-0.09,0.036c-0.008,0.003-0.009,0.012-0.016,0.016  c-0.008,0.003-0.016-0.001-0.023,0.003l-16.175,9.334v-2.793c0-0.014-0.013-0.022-0.015-0.036c-0.004-0.027-0.01-0.047-0.02-0.073  c-0.006-0.014,0.002-0.028-0.006-0.042c-0.008-0.013-0.023-0.014-0.032-0.025c-0.017-0.021-0.031-0.036-0.052-0.052  c-0.012-0.009-0.012-0.024-0.024-0.032l-3.398-1.989L58.35,20.009z M41.409,28.188l1.255,0.697c0.001,0,0.001,0,0.002,0l0.001,0  l3.393,1.986l-3.175,1.837l-0.157-0.102l2.264-1.315c0,0,0.001-0.001,0.002-0.001l0.001,0c0.001,0,0.001-0.001,0.002-0.002  c0.043-0.026,0.081-0.062,0.108-0.108c0.007-0.013,0-0.027,0.005-0.041c0.016-0.037,0.014-0.069,0.014-0.109  s0.001-0.073-0.014-0.109c-0.006-0.013,0.002-0.028-0.006-0.041c-0.015-0.025-0.044-0.03-0.064-0.049  c-0.019-0.019-0.022-0.047-0.047-0.061l-3.719-2.125c-0.012-0.007-0.026,0-0.039-0.005c-0.025-0.011-0.045-0.016-0.072-0.02  c-0.014-0.002-0.022-0.015-0.037-0.015s-0.023,0.014-0.038,0.016c-0.026,0.004-0.046,0.009-0.07,0.019  c-0.014,0.005-0.028-0.002-0.041,0.005l-2.562,1.473l-0.174-0.108L41.409,28.188z M33.486,33.981l0.261-0.436l0.279-0.362  l0.375-0.289c0,0,0.001,0,0.001,0l3.271-2.528l0.206,0.128l-3.093,2.362c-0.004,0.003-0.003,0.009-0.007,0.012  c-0.004,0.003-0.011,0.001-0.015,0.005l-0.375,0.344c-0.006,0.005-0.004,0.013-0.009,0.018c-0.005,0.005-0.013,0.004-0.018,0.009  l-0.344,0.406c-0.005,0.006-0.002,0.015-0.007,0.021c-0.004,0.006-0.012,0.005-0.016,0.011l-0.281,0.438  c-0.005,0.008,0,0.018-0.005,0.027s-0.017,0.01-0.021,0.02l-0.026,0.064l-0.237-0.133L33.486,33.981z M35.225,33.695L35.19,33.72  l0.026-0.021L35.225,33.695z M35.134,33.765c-0.004,0.003-0.004,0.009-0.008,0.013c-0.005,0.004-0.012,0.002-0.017,0.007  L35.134,33.765z M35.084,33.805l-0.296,0.296c-0.008,0.008-0.005,0.02-0.012,0.028s-0.02,0.008-0.026,0.018l-0.25,0.375  c-0.003,0.004,0,0.01-0.003,0.014s-0.009,0.004-0.011,0.009l-0.039,0.071l-0.049-0.029l0.024-0.067l0.245-0.326l0.279-0.28  L35.084,33.805z M31.557,33.662l1.317,0.812c0.002,0.001,0.005,0,0.008,0.002c0.001,0.001,0.001,0.003,0.003,0.004l0.773,0.434  l0.156,0.093c0.002,0.001,0.004,0,0.006,0.001s0.002,0.003,0.003,0.003l0.562,0.312c0,0,0.001,0,0.001,0l0.205,0.117l0.273,0.183  c0.007,0.004,0.015,0.002,0.021,0.006c0.005,0.003,0.006,0.01,0.011,0.013l0.422,0.211l0.518,0.335  c0.01,0.006,0.021,0.004,0.03,0.009c0.007,0.003,0.008,0.012,0.015,0.015l0.219,0.094l0.198,0.085l0.27,0.164l-3.692,2.129  l-5.024-2.903L31.557,33.662z M26.541,37.331l0.335-0.78l0.418-0.397l5.351,3.092l0.574,1.205l0.38,1.257l-0.635-0.372  c-0.01-0.006-0.021,0-0.031-0.004c-0.037-0.017-0.072-0.014-0.112-0.015c-0.039-0.001-0.072-0.006-0.108,0.007l-0.631-0.37v-0.078  c0-0.015-0.014-0.023-0.016-0.037c-0.005-0.04-0.022-0.069-0.043-0.104c-0.02-0.034-0.035-0.062-0.066-0.086  c-0.012-0.009-0.013-0.025-0.025-0.033l-3.438-1.969c-0.024-0.014-0.052-0.003-0.078-0.01c-0.025-0.007-0.043-0.029-0.071-0.029  c-0.015,0-0.023,0.014-0.037,0.016c-0.04,0.005-0.067,0.022-0.102,0.042c-0.02,0.011-0.045,0.01-0.061,0.025l-0.515-0.305  c-0.004-0.022-0.013-0.037-0.021-0.058c-0.006-0.013,0.001-0.027-0.006-0.04s-0.022-0.013-0.031-0.024  c-0.017-0.022-0.032-0.037-0.054-0.053c-0.012-0.009-0.013-0.025-0.025-0.032l-0.875-0.5c-0.011-0.006-0.023,0-0.034-0.004  c-0.029-0.013-0.056-0.014-0.088-0.017L26.541,37.331z M22.09,40.803l4.186-2.418v0l0.19-0.104l0.277,0.159l-3.738,2.176  c-0.012,0.007-0.013,0.022-0.022,0.03c-0.011,0.008-0.025,0.004-0.035,0.014l-2.969,2.875c-0.002,0.002-0.001,0.005-0.003,0.008  l-0.441-0.245L22.09,40.803z M19.286,43.846l0.346,0.192l-0.062,0.062c-0.006,0.006-0.004,0.016-0.009,0.022l-0.374-0.218  L19.286,43.846z M18.3,44.911l0.369,0.226v0.045L18.3,44.957V44.911z"></path></svg>